M48
; DRILL file KiCad 10.0.5-1.fc43 date 2026-07-27T16:48:09
; FORMAT={-:-/ absolute / metric / decimal}
; #@! TF.CreationDate,2026-07-27T16:48:09+07:00
; #@! TF.GenerationSoftware,Kicad,Pcbnew,10.0.5-1.fc43
; #@! TF.FileFunction,Plated,1,2,PTH
FMAT,2
METRIC
; #@! TA.AperFunction,Plated,PTH,ViaDrill
T1C0.300
; #@! TA.AperFunction,Plated,PTH,ComponentDrill
T2C0.600
; #@! TA.AperFunction,Plated,PTH,ComponentDrill
T3C1.000
; #@! TA.AperFunction,Plated,PTH,ComponentDrill
T4C1.092
; #@! TA.AperFunction,Plated,PTH,ComponentDrill
T5C1.200
; #@! TA.AperFunction,Plated,PTH,ComponentDrill
T6C1.700
; #@! TA.AperFunction,Plated,PTH,ComponentDrill
T7C3.048
; #@! TA.AperFunction,Plated,PTH,ComponentDrill
T8C4.300
%
G90
G05
T1
X87.4Y-45.383
X87.4Y-48.847
X87.4Y-52.311
X87.4Y-55.775
X87.4Y-59.239
X87.4Y-66.167
X87.4Y-73.095
X87.4Y-76.559
X87.4Y-86.952
X87.4Y-90.416
X87.4Y-93.88
X87.4Y-97.344
X87.4Y-104.272
X87.4Y-107.736
X88.4Y-47.115
X88.4Y-50.579
X88.4Y-54.043
X88.4Y-57.507
X88.4Y-67.899
X88.4Y-71.363
X88.4Y-88.684
X88.4Y-92.148
X88.4Y-95.612
X88.4Y-106.004
X89.4Y-45.383
X89.4Y-48.847
X89.4Y-52.311
X89.4Y-55.775
X89.4Y-73.095
X89.4Y-86.952
X89.4Y-90.416
X89.4Y-93.88
X89.4Y-104.272
X89.4Y-107.736
X90.4Y-47.115
X90.4Y-50.579
X90.4Y-54.043
X90.4Y-57.507
X90.4Y-71.363
X90.4Y-88.684
X90.4Y-92.148
X90.4Y-95.612
X90.4Y-106.004
X91.4Y-45.383
X91.4Y-48.847
X91.4Y-52.311
X91.4Y-55.775
X91.4Y-73.095
X91.4Y-86.952
X91.4Y-90.416
X91.4Y-93.88
X91.4Y-97.344
X91.4Y-107.736
X92.4Y-47.115
X92.4Y-50.579
X92.4Y-54.043
X92.4Y-57.507
X92.4Y-67.899
X92.4Y-71.363
X92.4Y-88.684
X92.4Y-92.148
X93.4Y-45.383
X93.4Y-48.847
X93.4Y-52.311
X93.4Y-55.775
X93.4Y-73.095
X93.4Y-86.952
X93.4Y-90.416
X93.4Y-93.88
X93.4Y-104.272
X93.4Y-107.736
X94.4Y-47.115
X94.4Y-50.579
X94.4Y-54.043
X94.4Y-57.507
X94.4Y-67.899
X94.4Y-71.363
X95.4Y-45.383
X95.4Y-48.847
X95.4Y-52.311
X95.4Y-55.775
X95.4Y-59.239
X95.4Y-66.167
X95.4Y-97.344
X95.4Y-104.272
X95.4Y-107.736
X96.4Y-47.115
X96.4Y-50.579
X96.4Y-54.043
X96.4Y-57.507
X96.4Y-60.971
X96.4Y-64.435
X96.4Y-67.899
X96.4Y-78.291
X96.4Y-81.756
X96.4Y-85.22
X96.4Y-95.612
X96.4Y-99.076
X96.4Y-102.54
X97.4Y-45.383
X97.4Y-48.847
X97.4Y-52.311
X97.4Y-55.775
X97.4Y-59.239
X97.4Y-62.703
X97.4Y-66.167
X97.4Y-76.559
X97.4Y-80.024
X97.4Y-83.488
X97.4Y-86.952
X97.4Y-90.416
X97.4Y-93.88
X97.4Y-97.344
X97.4Y-100.808
X97.4Y-104.272
X97.4Y-107.736
X97.675Y-71.525
X98.4Y-47.115
X98.4Y-50.579
X98.4Y-54.043
X98.4Y-57.507
X98.4Y-60.971
X98.4Y-64.435
X98.4Y-74.827
X98.4Y-78.291
X98.4Y-81.756
X98.4Y-85.22
X98.4Y-88.684
X98.4Y-95.612
X98.4Y-99.076
X98.4Y-102.54
X99.4Y-45.383
X99.4Y-48.847
X99.4Y-52.311
X99.4Y-55.775
X99.4Y-59.239
X99.4Y-62.703
X99.4Y-66.167
X99.4Y-76.559
X99.4Y-80.024
X99.4Y-83.488
X99.4Y-86.952
X99.4Y-90.416
X99.4Y-93.88
X99.4Y-97.344
X99.4Y-104.272
X99.4Y-107.736
X100.4Y-47.115
X100.4Y-50.579
X100.4Y-54.043
X100.4Y-57.507
X100.4Y-60.971
X100.4Y-64.435
X100.4Y-74.827
X100.4Y-78.291
X100.4Y-81.756
X100.4Y-85.22
X100.4Y-88.684
X100.4Y-95.612
X101.4Y-45.383
X101.4Y-48.847
X101.4Y-52.311
X101.4Y-55.775
X101.4Y-59.239
X101.4Y-62.703
X101.4Y-66.167
X101.4Y-73.095
X101.4Y-76.559
X101.4Y-80.024
X101.4Y-83.488
X101.4Y-86.952
X101.4Y-90.416
X101.4Y-104.272
X101.4Y-107.736
X102.4Y-47.115
X102.4Y-50.579
X102.4Y-54.043
X102.4Y-57.507
X102.4Y-60.971
X102.4Y-64.435
X102.4Y-74.827
X102.4Y-78.291
X102.4Y-81.756
X102.4Y-85.22
X102.4Y-88.684
X103.275Y-74.475
X103.4Y-45.383
X103.4Y-48.847
X103.4Y-52.311
X103.4Y-55.775
X103.4Y-59.239
X103.4Y-62.703
X103.4Y-69.631
X103.4Y-76.559
X103.4Y-80.024
X103.4Y-83.488
X103.4Y-86.952
X103.4Y-90.416
X103.4Y-104.272
X103.4Y-107.736
X104.4Y-47.115
X104.4Y-50.579
X104.4Y-54.043
X104.4Y-57.507
X104.4Y-60.971
X104.4Y-64.435
X104.4Y-85.22
X104.4Y-88.684
X104.4Y-92.148
X104.4Y-99.076
X104.4Y-102.54
X104.95Y-70.915
X105.325Y-72.6
X105.325Y-72.6
X105.4Y-45.383
X105.4Y-48.847
X105.4Y-52.311
X105.4Y-55.775
X105.4Y-59.239
X105.4Y-62.703
X105.4Y-66.167
X105.4Y-83.488
X105.4Y-86.952
X105.4Y-90.416
X105.4Y-93.88
X105.4Y-97.344
X105.4Y-100.808
X105.4Y-104.272
X105.4Y-107.736
X106.4Y-47.115
X106.4Y-50.579
X106.4Y-54.043
X106.4Y-57.507
X106.4Y-60.971
X106.4Y-64.435
X106.4Y-78.291
X106.4Y-85.22
X106.4Y-88.684
X106.4Y-92.148
X106.4Y-95.612
X106.4Y-99.076
X106.4Y-102.54
X107.4Y-45.383
X107.4Y-48.847
X107.4Y-52.311
X107.4Y-55.775
X107.4Y-59.239
X107.4Y-62.703
X107.4Y-66.167
X107.4Y-76.559
X107.4Y-80.024
X107.4Y-83.488
X107.4Y-86.952
X107.4Y-90.416
X107.4Y-93.88
X107.4Y-104.272
X107.4Y-107.736
X108.4Y-47.115
X108.4Y-78.291
X108.4Y-85.22
X108.4Y-88.684
X108.4Y-92.148
X108.65Y-48.65
X109.4Y-45.383
X109.4Y-76.559
X109.4Y-80.024
X109.4Y-83.488
X109.4Y-86.952
X109.4Y-90.416
X109.4Y-93.88
X109.4Y-104.272
X109.4Y-107.736
X110.4Y-47.115
X110.4Y-50.579
X110.4Y-54.043
X110.4Y-57.507
X110.4Y-60.971
X110.4Y-64.435
X110.4Y-67.899
X110.4Y-71.363
X110.4Y-74.827
X110.4Y-78.291
X110.4Y-85.22
X110.4Y-88.684
X110.4Y-92.148
X110.4Y-95.612
X110.4Y-99.076
X110.4Y-102.54
X111.094Y-94.43
X111.4Y-45.383
X111.4Y-52.311
X111.4Y-55.775
X111.4Y-59.239
X111.4Y-62.703
X111.4Y-66.167
X111.4Y-69.631
X111.4Y-73.095
X111.4Y-76.559
X111.4Y-80.024
X111.4Y-83.488
X111.4Y-86.952
X111.4Y-90.416
X111.4Y-97.344
X111.4Y-100.808
X111.4Y-104.272
X111.4Y-107.736
X112.4Y-47.115
X112.4Y-50.579
X112.4Y-54.043
X112.4Y-57.507
X112.4Y-60.971
X112.4Y-64.435
X112.4Y-67.899
X112.4Y-71.363
X112.4Y-74.827
X112.4Y-78.291
X112.4Y-85.22
X112.4Y-88.684
X112.4Y-92.148
X112.4Y-95.612
X112.4Y-99.076
X112.4Y-102.54
X113.4Y-45.383
X113.4Y-52.311
X113.4Y-55.775
X113.4Y-59.239
X113.4Y-62.703
X113.4Y-66.167
X113.4Y-69.631
X113.4Y-73.095
X113.4Y-76.559
X113.4Y-80.024
X113.4Y-83.488
X113.4Y-86.952
X113.4Y-90.416
X113.4Y-97.344
X113.4Y-100.808
X113.4Y-104.272
X113.4Y-107.736
X114.4Y-47.115
X114.4Y-50.579
X114.4Y-54.043
X114.4Y-60.971
X114.4Y-64.435
X114.4Y-67.899
X114.4Y-71.363
X114.4Y-74.827
X114.4Y-78.291
X114.4Y-85.22
X114.4Y-88.684
X114.4Y-92.148
X114.4Y-95.612
X114.4Y-99.076
X114.4Y-102.54
X115.4Y-45.383
X115.4Y-52.311
X115.4Y-62.703
X115.4Y-66.167
X115.4Y-69.631
X115.4Y-73.095
X115.4Y-76.559
X115.4Y-80.024
X115.4Y-83.488
X115.4Y-86.952
X115.4Y-90.416
X115.4Y-97.344
X115.4Y-100.808
X115.4Y-104.272
X115.4Y-107.736
X116.4Y-47.115
X116.4Y-50.579
X116.4Y-54.043
X116.4Y-60.971
X116.4Y-64.435
X116.4Y-67.899
X116.4Y-71.363
X116.4Y-74.827
X116.4Y-78.291
X116.4Y-85.22
X116.4Y-88.684
X116.4Y-92.148
X116.4Y-95.612
X116.4Y-99.076
X116.4Y-102.54
X117.4Y-45.383
X117.4Y-52.311
X117.4Y-62.703
X117.4Y-66.167
X117.4Y-69.631
X117.4Y-73.095
X117.4Y-76.559
X117.4Y-80.024
X117.4Y-83.488
X117.4Y-86.952
X117.4Y-90.416
X117.4Y-97.344
X117.4Y-100.808
X117.4Y-104.272
X117.4Y-107.736
X118.4Y-47.115
X118.4Y-50.579
X118.4Y-60.971
X118.4Y-64.435
X118.4Y-67.899
X118.4Y-71.363
X118.4Y-74.827
X118.4Y-78.291
X118.4Y-85.22
X118.4Y-88.684
X118.4Y-92.148
X118.4Y-95.612
X118.4Y-99.076
X118.4Y-102.54
X119.4Y-45.383
X119.4Y-52.311
X119.4Y-62.703
X119.4Y-66.167
X119.4Y-69.631
X119.4Y-73.095
X119.4Y-76.559
X119.4Y-80.024
X119.4Y-83.488
X119.4Y-86.952
X119.4Y-90.416
X119.4Y-97.344
X119.4Y-100.808
X119.4Y-104.272
X119.4Y-107.736
X120.4Y-47.115
X120.4Y-50.579
X120.4Y-60.971
X120.4Y-64.435
X120.4Y-67.899
X120.4Y-71.363
X120.4Y-74.827
X120.4Y-78.291
X120.4Y-85.22
X120.4Y-88.684
X120.4Y-92.148
X120.4Y-95.612
X120.4Y-99.076
X120.4Y-102.54
X121.4Y-45.383
X121.4Y-52.311
X121.4Y-59.239
X121.4Y-62.703
X121.4Y-66.167
X121.4Y-69.631
X121.4Y-73.095
X121.4Y-76.559
X121.4Y-80.024
X121.4Y-83.488
X121.4Y-86.952
X121.4Y-90.416
X121.4Y-97.344
X121.4Y-100.808
X121.4Y-104.272
X121.4Y-107.736
X122.4Y-47.115
X122.4Y-50.579
X122.4Y-60.971
X122.4Y-64.435
X122.4Y-67.899
X122.4Y-71.363
X122.4Y-74.827
X122.4Y-78.291
X122.4Y-85.22
X122.4Y-88.684
X122.4Y-92.148
X122.4Y-95.612
X122.4Y-99.076
X122.4Y-102.54
X123.14Y-54.76
X123.4Y-45.383
X123.4Y-52.311
X123.4Y-107.736
X124.05Y-80.78
X124.4Y-47.115
X124.4Y-50.579
X124.4Y-54.043
X124.4Y-106.004
X125.4Y-45.383
X125.4Y-52.311
X125.4Y-55.775
X125.4Y-62.703
X125.4Y-66.167
X125.4Y-69.631
X125.4Y-73.095
X125.4Y-76.559
X125.4Y-80.024
X125.4Y-83.488
X125.4Y-86.952
X125.4Y-90.416
X125.4Y-97.344
X125.4Y-100.808
X125.4Y-104.272
X125.4Y-107.736
X126.4Y-47.115
X126.4Y-92.148
X126.4Y-95.612
X126.4Y-99.076
X126.4Y-102.54
X126.4Y-106.004
X126.5Y-91.01
X126.775Y-49.85
X126.775Y-81.0
X127.4Y-45.383
X127.4Y-86.952
X127.4Y-97.344
X127.4Y-100.808
X127.4Y-104.272
X127.4Y-107.736
X128.4Y-47.115
X128.4Y-54.043
X128.4Y-60.971
X128.4Y-64.435
X128.4Y-67.899
X128.4Y-71.363
X128.4Y-74.827
X128.4Y-78.291
X128.4Y-88.684
X128.4Y-95.612
X128.4Y-99.076
X128.4Y-102.54
X128.4Y-106.004
X129.4Y-45.383
X129.4Y-52.311
X129.4Y-55.775
X129.4Y-62.703
X129.4Y-66.167
X129.4Y-69.631
X129.4Y-73.095
X129.4Y-76.559
X129.4Y-80.024
X129.4Y-86.952
X129.4Y-97.344
X129.4Y-100.808
X129.4Y-104.272
X129.4Y-107.736
X130.4Y-47.115
X130.4Y-60.971
X130.4Y-64.435
X130.4Y-67.899
X130.4Y-71.363
X130.4Y-74.827
X130.4Y-78.291
X130.4Y-88.684
X130.4Y-92.148
X130.4Y-95.612
X130.4Y-99.076
X130.4Y-102.54
X130.4Y-106.004
X131.4Y-52.311
X131.4Y-59.239
X131.4Y-62.703
X131.4Y-66.167
X131.4Y-69.631
X131.4Y-73.095
X131.4Y-76.559
X131.4Y-80.024
X131.4Y-97.344
X131.4Y-100.808
X131.4Y-104.272
X131.4Y-107.736
X132.4Y-60.971
X132.4Y-64.435
X132.4Y-67.899
X132.4Y-71.363
X132.4Y-74.827
X132.4Y-78.291
X132.4Y-95.612
X132.4Y-99.076
X132.4Y-102.54
X132.4Y-106.004
X132.5Y-49.85
X133.4Y-52.311
X133.4Y-59.239
X133.4Y-69.631
X133.4Y-73.095
X133.4Y-76.559
X133.4Y-80.024
X133.4Y-97.344
X133.4Y-100.808
X133.4Y-104.272
X133.4Y-107.736
X134.4Y-54.043
X134.4Y-57.507
X134.4Y-60.971
X134.4Y-71.363
X134.4Y-74.827
X134.4Y-78.291
X134.4Y-85.22
X134.4Y-88.684
X134.4Y-92.148
X134.4Y-95.612
X134.4Y-99.076
X134.4Y-102.54
X134.4Y-106.004
X134.4Y-137.181
X135.4Y-52.311
X135.4Y-59.239
X135.4Y-69.631
X135.4Y-73.095
X135.4Y-76.559
X135.4Y-80.024
X135.4Y-97.344
X135.4Y-100.808
X135.4Y-104.272
X135.4Y-107.736
X135.4Y-114.665
X136.4Y-60.971
X136.4Y-64.435
X136.4Y-71.363
X136.4Y-74.827
X136.4Y-78.291
X136.4Y-88.684
X136.4Y-92.148
X136.4Y-95.612
X136.4Y-99.076
X136.4Y-102.54
X136.4Y-106.004
X136.4Y-109.468
X136.4Y-112.932
X136.4Y-137.181
X137.4Y-80.024
X137.4Y-86.952
X137.4Y-100.808
X137.4Y-104.272
X137.4Y-107.736
X137.4Y-111.2
X137.4Y-114.665
X138.4Y-85.22
X138.4Y-109.468
X138.4Y-112.932
X138.4Y-116.397
X138.4Y-137.181
X139.4Y-80.024
X139.4Y-86.952
X139.4Y-107.736
X139.4Y-111.2
X139.4Y-114.665
X139.4Y-118.129
X139.4Y-121.593
X139.4Y-125.057
X139.4Y-128.521
X139.4Y-131.985
X139.4Y-135.449
X140.4Y-102.54
X140.4Y-106.004
X140.4Y-109.468
X140.4Y-112.932
X140.4Y-116.397
X140.4Y-123.325
X140.4Y-126.789
X140.4Y-130.253
X140.4Y-133.717
X140.4Y-137.181
X141.4Y-52.311
X141.4Y-55.775
X141.4Y-62.703
X141.4Y-66.167
X141.4Y-73.095
X141.4Y-80.024
X141.4Y-100.808
X141.4Y-104.272
X141.4Y-111.2
X141.4Y-114.665
X141.4Y-121.593
X141.4Y-125.057
X141.4Y-128.521
X141.4Y-135.449
X142.4Y-47.115
X142.4Y-54.043
X142.4Y-67.899
X142.4Y-71.363
X142.4Y-74.827
X142.4Y-102.54
X142.4Y-106.004
X142.4Y-112.932
X142.4Y-116.397
X142.4Y-123.325
X142.4Y-126.789
X142.4Y-130.253
X142.4Y-133.717
X142.4Y-137.181
X143.4Y-52.311
X143.4Y-55.775
X143.4Y-62.703
X143.4Y-69.631
X143.4Y-73.095
X143.4Y-80.024
X143.4Y-100.808
X143.4Y-104.272
X143.4Y-107.736
X143.4Y-114.665
X143.4Y-121.593
X143.4Y-125.057
X143.4Y-128.521
X143.4Y-135.449
X143.85Y-49.85
X144.2Y-91.002
X144.38Y-99.87
X144.4Y-54.043
X144.4Y-60.971
X144.4Y-67.899
X144.4Y-71.363
X144.4Y-74.827
X144.4Y-112.932
X144.4Y-116.397
X144.4Y-119.861
X144.4Y-123.325
X144.4Y-126.789
X144.4Y-130.253
X144.4Y-133.717
X144.4Y-137.181
X144.458Y-95.28
X144.525Y-94.325
X145.3Y-93.625
X145.4Y-45.383
X145.4Y-48.847
X145.4Y-52.311
X145.4Y-55.775
X145.4Y-62.703
X145.4Y-69.631
X145.4Y-73.095
X145.4Y-80.024
X145.4Y-90.416
X145.4Y-114.665
X145.4Y-121.593
X145.4Y-125.057
X145.4Y-128.521
X145.4Y-135.449
X145.602Y-85.225
X146.4Y-47.115
X146.4Y-54.043
X146.4Y-67.899
X146.4Y-71.363
X146.4Y-74.827
X146.4Y-92.148
X146.4Y-116.397
X146.4Y-119.861
X146.4Y-123.325
X146.4Y-126.789
X146.4Y-137.181
X146.725Y-81.825
X147.302Y-82.52
X147.4Y-45.383
X147.4Y-48.847
X147.4Y-52.311
X147.4Y-55.775
X147.4Y-66.167
X147.4Y-73.095
X147.4Y-90.416
X147.4Y-100.808
X147.4Y-104.272
X147.4Y-107.736
X147.4Y-135.449
X148.0Y-79.525
X148.275Y-93.925
X148.4Y-47.115
X148.4Y-54.043
X148.4Y-71.363
X148.4Y-74.827
X148.4Y-102.54
X148.4Y-109.468
X148.4Y-116.397
X148.4Y-126.789
X148.4Y-137.181
X148.975Y-79.375
X149.125Y-94.125
X149.4Y-45.383
X149.4Y-48.847
X149.4Y-52.311
X149.4Y-55.775
X149.4Y-73.095
X149.4Y-104.272
X149.4Y-107.736
X149.4Y-125.057
X149.4Y-128.521
X149.4Y-131.985
X149.4Y-135.449
X149.702Y-86.2
X149.965Y-90.56
X150.4Y-47.115
X150.4Y-54.043
X150.4Y-67.899
X150.4Y-71.363
X150.4Y-74.827
X150.4Y-78.291
X150.4Y-102.54
X150.4Y-126.789
X150.4Y-130.253
X150.4Y-133.717
X150.4Y-137.181
X151.4Y-45.383
X151.4Y-48.847
X151.4Y-52.311
X151.4Y-66.167
X151.4Y-69.631
X151.4Y-73.095
X151.4Y-76.559
X151.4Y-80.024
X151.4Y-100.808
X151.4Y-107.736
X151.4Y-125.057
X151.4Y-131.985
X151.4Y-135.449
X152.4Y-47.115
X152.4Y-54.043
X152.4Y-57.507
X152.4Y-67.899
X152.4Y-71.363
X152.4Y-74.827
X152.4Y-78.291
X152.4Y-106.004
X152.4Y-109.468
X152.4Y-123.325
X152.4Y-126.789
X152.4Y-137.181
X153.4Y-45.383
X153.4Y-48.847
X153.4Y-52.311
X153.4Y-55.775
X153.4Y-59.239
X153.4Y-69.631
X153.4Y-73.095
X153.4Y-76.559
X153.4Y-80.024
X153.4Y-83.488
X153.4Y-86.952
X153.4Y-100.808
X153.4Y-107.736
X153.4Y-114.665
X153.4Y-135.449
X153.77Y-91.26
X154.06Y-92.13
X154.185Y-93.045
X154.4Y-47.115
X154.4Y-54.043
X154.4Y-57.507
X154.4Y-71.363
X154.4Y-74.827
X154.4Y-78.291
X154.4Y-85.22
X154.4Y-116.397
X154.4Y-137.181
X155.4Y-45.383
X155.4Y-48.847
X155.4Y-52.311
X155.4Y-55.775
X155.4Y-59.239
X155.4Y-76.559
X155.4Y-80.024
X155.4Y-83.488
X155.4Y-90.416
X155.4Y-93.88
X155.4Y-104.272
X155.4Y-107.736
X155.4Y-111.2
X155.4Y-118.129
X155.4Y-121.593
X155.4Y-125.057
X155.4Y-128.521
X155.4Y-131.985
X155.4Y-135.449
X155.45Y-85.4
X156.1Y-95.95
X156.4Y-47.115
X156.4Y-54.043
X156.4Y-74.827
X156.4Y-78.291
X156.4Y-88.684
X156.4Y-106.004
X156.4Y-109.468
X156.4Y-119.861
X156.4Y-123.325
X156.4Y-126.789
X156.4Y-130.253
X156.4Y-133.717
X156.4Y-137.181
X157.4Y-45.383
X157.4Y-48.847
X157.4Y-52.311
X157.4Y-76.559
X157.4Y-80.024
X157.4Y-83.488
X157.4Y-86.952
X157.4Y-90.416
X157.4Y-93.88
X157.4Y-114.665
X157.4Y-118.129
X157.4Y-121.593
X157.4Y-125.057
X157.4Y-128.521
X157.4Y-131.985
X157.4Y-135.449
X158.4Y-47.115
X158.4Y-54.043
X158.4Y-74.827
X158.4Y-78.291
X158.4Y-88.684
X158.4Y-95.612
X158.4Y-102.54
X158.4Y-112.932
X158.4Y-119.861
X158.4Y-123.325
X158.4Y-126.789
X158.4Y-130.253
X158.4Y-133.717
X158.4Y-137.181
X159.4Y-45.383
X159.4Y-48.847
X159.4Y-52.311
X159.4Y-55.775
X159.4Y-59.239
X159.4Y-76.559
X159.4Y-80.024
X159.4Y-100.808
X159.4Y-114.665
X159.4Y-118.129
X159.4Y-121.593
X159.4Y-125.057
X159.4Y-128.521
X159.4Y-131.985
X159.4Y-135.449
X160.03Y-82.56
X160.4Y-47.115
X160.4Y-54.043
X160.4Y-57.507
X160.4Y-74.827
X160.4Y-78.291
X160.4Y-119.861
X160.4Y-123.325
X160.4Y-126.789
X160.4Y-130.253
X160.4Y-133.717
X160.4Y-137.181
X161.055Y-99.985
X161.4Y-45.383
X161.4Y-48.847
X161.4Y-52.311
X161.4Y-55.775
X161.4Y-59.239
X161.4Y-76.559
X161.4Y-80.024
X161.4Y-83.488
X161.4Y-86.952
X161.4Y-90.416
X161.4Y-97.344
X161.4Y-118.129
X161.4Y-121.593
X161.4Y-125.057
X161.4Y-128.521
X161.4Y-131.985
X161.4Y-135.449
X161.41Y-93.03
X162.4Y-61.0
X162.4Y-47.115
X162.4Y-74.827
X162.4Y-78.291
X162.4Y-88.684
X162.4Y-102.54
X162.4Y-106.004
X162.4Y-109.468
X162.4Y-112.932
X162.4Y-116.397
X162.4Y-119.861
X162.4Y-123.325
X162.4Y-126.789
X162.4Y-130.253
X162.4Y-133.717
X162.4Y-137.181
X163.0Y-51.0
X163.4Y-45.383
X163.4Y-48.847
X163.4Y-76.559
X163.4Y-80.024
X163.4Y-83.488
X163.4Y-86.952
X163.4Y-90.416
X163.4Y-97.344
X163.4Y-100.808
X163.4Y-104.272
X163.4Y-107.736
X163.4Y-111.2
X163.4Y-114.665
X163.4Y-118.129
X163.4Y-121.593
X163.4Y-125.057
X163.4Y-128.521
X163.4Y-131.985
X163.4Y-135.449
X164.4Y-47.115
X164.4Y-50.579
X164.4Y-54.043
X164.4Y-57.507
X164.4Y-60.971
X164.4Y-67.899
X164.4Y-71.363
X164.4Y-74.827
X164.4Y-78.291
X164.4Y-88.684
X164.4Y-106.004
X164.4Y-109.468
X164.4Y-116.397
X164.4Y-119.861
X164.4Y-123.325
X164.4Y-126.789
X164.4Y-130.253
X164.4Y-133.717
X164.4Y-137.181
X165.4Y-45.383
X165.4Y-48.847
X165.4Y-52.311
X165.4Y-55.775
X165.4Y-62.703
X165.4Y-69.631
X165.4Y-73.095
X165.4Y-76.559
X165.4Y-80.024
X165.4Y-83.488
X165.4Y-86.952
X165.4Y-90.416
X165.4Y-97.344
X165.4Y-107.736
X165.4Y-118.129
X165.4Y-121.593
X165.4Y-125.057
X165.4Y-128.521
X165.4Y-131.985
X165.4Y-135.449
X166.4Y-47.115
X166.4Y-50.579
X166.4Y-54.043
X166.4Y-57.507
X166.4Y-60.971
X166.4Y-74.827
X166.4Y-78.291
X166.4Y-106.004
X166.4Y-109.468
X166.4Y-116.397
X166.4Y-119.861
X166.4Y-123.325
X166.4Y-126.789
X166.4Y-130.253
X166.4Y-133.717
X166.4Y-137.181
X167.18Y-82.55
X167.4Y-45.383
X167.4Y-48.847
X167.4Y-52.311
X167.4Y-55.775
X167.4Y-62.703
X167.4Y-76.559
X167.4Y-80.024
X167.4Y-107.736
X167.4Y-111.2
X167.4Y-118.129
X167.4Y-121.593
X167.4Y-125.057
X167.4Y-128.521
X167.4Y-131.985
X167.4Y-135.449
X168.4Y-47.115
X168.4Y-50.579
X168.4Y-54.043
X168.4Y-57.507
X168.4Y-74.827
X168.4Y-78.291
X168.4Y-88.684
X168.4Y-106.004
X168.4Y-109.468
X168.4Y-116.397
X168.4Y-119.861
X168.4Y-123.325
X168.4Y-126.789
X168.4Y-130.253
X168.4Y-133.717
X168.4Y-137.181
X169.22Y-91.27
X169.4Y-45.383
X169.4Y-48.847
X169.4Y-52.311
X169.4Y-55.775
X169.4Y-59.239
X169.4Y-62.703
X169.4Y-73.095
X169.4Y-76.559
X169.4Y-100.808
X169.4Y-104.272
X169.4Y-107.736
X169.4Y-111.2
X169.4Y-114.665
X169.4Y-118.129
X169.4Y-121.593
X169.4Y-125.057
X169.4Y-128.521
X169.4Y-131.985
X169.4Y-135.449
X169.82Y-92.13
X169.875Y-63.825
X170.4Y-65.0
X170.4Y-47.115
X170.4Y-50.579
X170.4Y-54.043
X170.4Y-57.507
X170.4Y-60.971
X170.4Y-102.54
X170.4Y-106.004
X170.4Y-109.468
X170.4Y-112.932
X170.4Y-116.397
X170.4Y-119.861
X170.4Y-123.325
X170.4Y-126.789
X170.4Y-130.253
X170.4Y-133.717
X170.4Y-137.181
X171.0Y-66.29
X171.4Y-45.383
X171.4Y-48.847
X171.4Y-52.311
X171.4Y-55.775
X171.4Y-59.239
X171.4Y-93.88
X171.4Y-97.344
X171.4Y-100.808
X171.4Y-104.272
X171.4Y-107.736
X171.4Y-111.2
X171.4Y-114.665
X171.4Y-118.129
X171.4Y-121.593
X171.4Y-125.057
X171.4Y-128.521
X171.4Y-131.985
X171.4Y-135.449
X171.6Y-67.9
X171.6Y-69.1
X172.4Y-65.8
X172.4Y-47.115
X172.4Y-50.579
X172.4Y-54.043
X172.4Y-57.507
X172.4Y-60.971
X172.4Y-71.363
X172.4Y-74.827
X172.4Y-78.291
X172.4Y-92.148
X172.4Y-95.612
X172.4Y-102.54
X172.4Y-112.932
X172.4Y-116.397
X172.4Y-119.861
X172.4Y-123.325
X172.4Y-126.789
X172.4Y-130.253
X172.4Y-133.717
X172.4Y-137.181
X172.425Y-69.575
X173.4Y-45.383
X173.4Y-48.847
X173.4Y-52.311
X173.4Y-55.775
X173.4Y-59.239
X173.4Y-62.703
X173.4Y-69.631
X173.4Y-73.095
X173.4Y-76.559
X173.4Y-80.024
X173.4Y-86.952
X173.4Y-93.88
X173.4Y-97.344
X173.4Y-100.808
X173.4Y-107.736
X173.4Y-114.665
X173.4Y-118.129
X173.4Y-121.593
X173.4Y-125.057
X173.4Y-128.521
X173.4Y-131.985
X173.4Y-135.449
X173.5Y-71.45
X173.675Y-64.85
X174.4Y-47.115
X174.4Y-50.579
X174.4Y-54.043
X174.4Y-57.507
X174.4Y-78.291
X174.4Y-81.756
X174.4Y-85.22
X174.4Y-88.684
X174.4Y-92.148
X174.4Y-95.612
X174.4Y-109.468
X174.4Y-112.932
X174.4Y-116.397
X174.4Y-119.861
X174.4Y-123.325
X174.4Y-126.789
X174.4Y-130.253
X174.4Y-133.717
X174.4Y-137.181
X175.4Y-45.383
X175.4Y-48.847
X175.4Y-52.311
X175.4Y-55.775
X175.4Y-59.239
X175.4Y-76.559
X175.4Y-80.024
X175.4Y-83.488
X175.4Y-86.952
X175.4Y-90.416
X175.4Y-93.88
X175.4Y-97.344
X175.4Y-107.736
X175.4Y-111.2
X175.4Y-114.665
X175.4Y-118.129
X175.4Y-121.593
X175.4Y-125.057
X175.4Y-128.521
X175.4Y-131.985
X175.4Y-135.449
X176.4Y-47.115
X176.4Y-50.579
X176.4Y-54.043
X176.4Y-57.507
X176.4Y-60.971
X176.4Y-67.899
X176.4Y-74.827
X176.4Y-78.291
X176.4Y-81.756
X176.4Y-85.22
X176.4Y-88.684
X176.4Y-92.148
X176.4Y-109.468
X176.4Y-112.932
X176.4Y-116.397
X176.4Y-119.861
X176.4Y-123.325
X176.4Y-126.789
X176.4Y-130.253
X176.4Y-133.717
X176.4Y-137.181
X177.4Y-45.383
X177.4Y-48.847
X177.4Y-52.311
X177.4Y-55.775
X177.4Y-59.239
X177.4Y-69.631
X177.4Y-76.559
X177.4Y-80.024
X177.4Y-83.488
X177.4Y-86.952
X177.4Y-90.416
X177.4Y-97.344
X177.4Y-100.808
X177.4Y-111.2
X177.4Y-114.665
X177.4Y-118.129
X177.4Y-121.593
X177.4Y-125.057
X177.4Y-128.521
X177.4Y-131.985
X177.4Y-135.449
X178.4Y-47.115
X178.4Y-50.579
X178.4Y-54.043
X178.4Y-57.507
X178.4Y-67.899
X178.4Y-71.363
X178.4Y-78.291
X178.4Y-81.756
X178.4Y-85.22
X178.4Y-88.684
X178.4Y-92.148
X178.4Y-109.468
X178.4Y-112.932
X178.4Y-116.397
X178.4Y-119.861
X178.4Y-123.325
X178.4Y-126.789
X178.4Y-130.253
X178.4Y-133.717
X178.4Y-137.181
X179.4Y-45.383
X179.4Y-48.847
X179.4Y-52.311
X179.4Y-55.775
X179.4Y-59.239
X179.4Y-62.703
X179.4Y-66.167
X179.4Y-69.631
X179.4Y-76.559
X179.4Y-80.024
X179.4Y-83.488
X179.4Y-86.952
X179.4Y-90.416
X179.4Y-93.88
X179.4Y-97.344
X179.4Y-107.736
X179.4Y-111.2
X179.4Y-114.665
X179.4Y-118.129
X179.4Y-121.593
X179.4Y-125.057
X179.4Y-128.521
X179.4Y-131.985
X179.4Y-135.449
X179.65Y-98.7
X180.4Y-47.115
X180.4Y-50.579
X180.4Y-54.043
X180.4Y-57.507
X180.4Y-60.971
X180.4Y-67.899
X180.4Y-71.363
X180.4Y-74.827
X180.4Y-78.291
X180.4Y-81.756
X180.4Y-85.22
X180.4Y-88.684
X180.4Y-92.148
X180.4Y-95.612
X180.4Y-106.004
X180.4Y-109.468
X180.4Y-112.932
X180.4Y-116.397
X180.4Y-119.861
X180.4Y-123.325
X180.4Y-126.789
X180.4Y-130.253
X180.4Y-133.717
X180.4Y-137.181
T3
X131.22Y-119.48
X131.22Y-132.18
X132.51Y-47.8
X135.05Y-47.8
X137.59Y-47.8
X140.13Y-47.8
X141.22Y-119.48
X141.22Y-132.18
X172.0Y-82.86
X172.0Y-85.4
X172.0Y-87.94
X172.0Y-90.48
T4
X158.525Y-105.457
X158.525Y-107.957
X158.525Y-110.457
X173.025Y-105.457
X173.025Y-110.457
T5
X134.75Y-63.0
X134.75Y-66.5
T6
X94.675Y-92.625
X101.675Y-92.625
T7
X166.025Y-102.457
X166.025Y-113.457
T8
X91.125Y-62.8
X91.125Y-81.475
X93.025Y-132.65
X93.65Y-118.125
T2
G00X176.002Y-63.932
M15
G01X174.903Y-63.932
M16
G05
G00X176.002Y-72.568
M15
G01X174.903Y-72.568
M16
G05
G00X179.933Y-63.932
M15
G01X179.332Y-63.932
M16
G05
G00X179.933Y-72.568
M15
G01X179.332Y-72.568
M16
G05
M30
