M48
; DRILL file KiCad 10.0.5-1.fc43 date 2026-07-29T15:29:54
; FORMAT={-:-/ absolute / metric / decimal}
; #@! TF.CreationDate,2026-07-29T15:29:54+07:00
; #@! TF.GenerationSoftware,Kicad,Pcbnew,10.0.5-1.fc43
; #@! TF.FileFunction,Plated,1,2,PTH
FMAT,2
METRIC
; #@! TA.AperFunction,Plated,PTH,ViaDrill
T1C0.300
; #@! TA.AperFunction,Plated,PTH,ComponentDrill
T2C0.600
; #@! TA.AperFunction,Plated,PTH,ComponentDrill
T3C1.000
; #@! TA.AperFunction,Plated,PTH,ComponentDrill
T4C1.092
; #@! TA.AperFunction,Plated,PTH,ComponentDrill
T5C1.200
; #@! TA.AperFunction,Plated,PTH,ComponentDrill
T6C1.700
; #@! TA.AperFunction,Plated,PTH,ComponentDrill
T7C3.048
; #@! TA.AperFunction,Plated,PTH,ComponentDrill
T8C4.300
%
G90
G05
T1
X88.4Y-45.651
X88.4Y-47.651
X88.4Y-49.651
X88.4Y-51.651
X88.4Y-53.651
X88.4Y-55.651
X88.4Y-57.65
X88.4Y-67.65
X88.4Y-71.65
X88.4Y-73.65
X88.4Y-87.65
X88.4Y-89.65
X88.4Y-91.65
X88.4Y-93.65
X88.4Y-95.65
X88.4Y-97.65
X88.4Y-103.65
X88.4Y-105.65
X88.4Y-107.65
X90.4Y-45.651
X90.4Y-47.651
X90.4Y-49.651
X90.4Y-51.651
X90.4Y-53.651
X90.4Y-55.651
X90.4Y-57.65
X90.4Y-71.65
X90.4Y-73.65
X90.4Y-87.65
X90.4Y-89.65
X90.4Y-91.65
X90.4Y-93.65
X90.4Y-95.65
X90.4Y-103.65
X90.4Y-105.65
X90.4Y-107.65
X92.4Y-45.651
X92.4Y-47.651
X92.4Y-49.651
X92.4Y-51.651
X92.4Y-53.651
X92.4Y-55.651
X92.4Y-57.65
X92.4Y-67.65
X92.4Y-71.65
X92.4Y-73.65
X92.4Y-87.65
X92.4Y-89.65
X92.4Y-91.65
X92.4Y-93.65
X92.4Y-107.65
X94.4Y-45.651
X94.4Y-47.651
X94.4Y-49.651
X94.4Y-51.651
X94.4Y-53.651
X94.4Y-55.651
X94.4Y-57.65
X94.4Y-67.65
X94.4Y-71.65
X94.4Y-73.65
X94.4Y-77.65
X94.4Y-85.65
X94.4Y-103.65
X94.4Y-107.65
X96.4Y-45.651
X96.4Y-47.651
X96.4Y-49.651
X96.4Y-51.651
X96.4Y-53.651
X96.4Y-55.651
X96.4Y-57.65
X96.4Y-59.65
X96.4Y-61.65
X96.4Y-63.65
X96.4Y-65.65
X96.4Y-67.65
X96.4Y-77.65
X96.4Y-79.65
X96.4Y-81.65
X96.4Y-83.65
X96.4Y-85.65
X96.4Y-91.65
X96.4Y-93.65
X96.4Y-95.65
X96.4Y-97.65
X96.4Y-99.65
X96.4Y-101.65
X96.4Y-103.65
X96.4Y-107.65
X97.675Y-71.525
X98.4Y-45.651
X98.4Y-47.651
X98.4Y-49.651
X98.4Y-51.651
X98.4Y-53.651
X98.4Y-55.651
X98.4Y-57.65
X98.4Y-59.65
X98.4Y-61.65
X98.4Y-63.65
X98.4Y-65.65
X98.4Y-75.65
X98.4Y-77.65
X98.4Y-79.65
X98.4Y-81.65
X98.4Y-83.65
X98.4Y-85.65
X98.4Y-87.65
X98.4Y-89.65
X98.4Y-91.65
X98.4Y-93.65
X98.4Y-95.65
X98.4Y-97.65
X98.4Y-99.65
X98.4Y-101.65
X98.4Y-103.65
X98.4Y-107.65
X100.4Y-45.651
X100.4Y-47.651
X100.4Y-49.651
X100.4Y-51.651
X100.4Y-53.651
X100.4Y-55.651
X100.4Y-57.65
X100.4Y-59.65
X100.4Y-61.65
X100.4Y-63.65
X100.4Y-65.65
X100.4Y-71.65
X100.4Y-73.65
X100.4Y-75.65
X100.4Y-77.65
X100.4Y-79.65
X100.4Y-81.65
X100.4Y-83.65
X100.4Y-85.65
X100.4Y-87.65
X100.4Y-89.65
X100.4Y-91.65
X100.4Y-93.65
X100.4Y-95.65
X100.4Y-97.65
X100.4Y-103.65
X100.4Y-107.65
X102.4Y-45.651
X102.4Y-47.651
X102.4Y-49.651
X102.4Y-51.651
X102.4Y-53.651
X102.4Y-55.651
X102.4Y-57.65
X102.4Y-59.65
X102.4Y-61.65
X102.4Y-63.65
X102.4Y-65.65
X102.4Y-67.65
X102.4Y-69.65
X102.4Y-75.65
X102.4Y-77.65
X102.4Y-79.65
X102.4Y-81.65
X102.4Y-83.65
X102.4Y-85.65
X102.4Y-87.65
X102.4Y-89.65
X102.4Y-103.65
X102.4Y-107.65
X103.275Y-74.475
X104.4Y-45.651
X104.4Y-47.651
X104.4Y-49.651
X104.4Y-51.651
X104.4Y-53.651
X104.4Y-55.651
X104.4Y-57.65
X104.4Y-59.65
X104.4Y-61.65
X104.4Y-63.65
X104.4Y-65.65
X104.4Y-67.65
X104.4Y-83.65
X104.4Y-85.65
X104.4Y-87.65
X104.4Y-89.65
X104.4Y-91.65
X104.4Y-93.65
X104.4Y-99.65
X104.4Y-101.65
X104.4Y-103.65
X104.4Y-107.65
X104.95Y-70.915
X105.325Y-72.6
X105.325Y-72.6
X106.4Y-45.651
X106.4Y-47.651
X106.4Y-49.651
X106.4Y-51.651
X106.4Y-53.651
X106.4Y-55.651
X106.4Y-57.65
X106.4Y-59.65
X106.4Y-61.65
X106.4Y-63.65
X106.4Y-65.65
X106.4Y-67.65
X106.4Y-75.65
X106.4Y-77.65
X106.4Y-79.65
X106.4Y-83.65
X106.4Y-85.65
X106.4Y-87.65
X106.4Y-89.65
X106.4Y-91.65
X106.4Y-93.65
X106.4Y-95.65
X106.4Y-97.65
X106.4Y-99.65
X106.4Y-101.65
X106.4Y-103.65
X106.4Y-107.65
X108.4Y-45.651
X108.4Y-75.65
X108.4Y-77.65
X108.4Y-79.65
X108.4Y-83.65
X108.4Y-85.65
X108.4Y-87.65
X108.4Y-89.65
X108.4Y-91.65
X108.4Y-93.65
X108.4Y-103.65
X108.4Y-107.65
X108.65Y-48.65
X110.4Y-45.651
X110.4Y-51.651
X110.4Y-53.651
X110.4Y-55.651
X110.4Y-57.65
X110.4Y-59.65
X110.4Y-61.65
X110.4Y-63.65
X110.4Y-65.65
X110.4Y-67.65
X110.4Y-69.65
X110.4Y-71.65
X110.4Y-73.65
X110.4Y-75.65
X110.4Y-77.65
X110.4Y-79.65
X110.4Y-83.65
X110.4Y-85.65
X110.4Y-87.65
X110.4Y-89.65
X110.4Y-91.65
X110.4Y-95.65
X110.4Y-97.65
X110.4Y-99.65
X110.4Y-101.65
X110.4Y-103.65
X110.4Y-107.65
X111.094Y-94.43
X112.4Y-45.651
X112.4Y-51.651
X112.4Y-53.651
X112.4Y-55.651
X112.4Y-57.65
X112.4Y-59.65
X112.4Y-61.65
X112.4Y-63.65
X112.4Y-65.65
X112.4Y-67.65
X112.4Y-69.65
X112.4Y-71.65
X112.4Y-73.65
X112.4Y-75.65
X112.4Y-77.65
X112.4Y-79.65
X112.4Y-83.65
X112.4Y-85.65
X112.4Y-87.65
X112.4Y-89.65
X112.4Y-91.65
X112.4Y-93.65
X112.4Y-95.65
X112.4Y-97.65
X112.4Y-99.65
X112.4Y-101.65
X112.4Y-103.65
X112.4Y-107.65
X114.4Y-45.651
X114.4Y-51.651
X114.4Y-53.651
X114.4Y-55.651
X114.4Y-59.65
X114.4Y-61.65
X114.4Y-63.65
X114.4Y-65.65
X114.4Y-67.65
X114.4Y-69.65
X114.4Y-71.65
X114.4Y-73.65
X114.4Y-75.65
X114.4Y-77.65
X114.4Y-79.65
X114.4Y-83.65
X114.4Y-85.65
X114.4Y-87.65
X114.4Y-89.65
X114.4Y-91.65
X114.4Y-93.65
X114.4Y-95.65
X114.4Y-97.65
X114.4Y-99.65
X114.4Y-101.65
X114.4Y-103.65
X114.4Y-107.65
X116.4Y-45.651
X116.4Y-51.651
X116.4Y-53.651
X116.4Y-61.65
X116.4Y-63.65
X116.4Y-65.65
X116.4Y-67.65
X116.4Y-69.65
X116.4Y-71.65
X116.4Y-73.65
X116.4Y-75.65
X116.4Y-77.65
X116.4Y-79.65
X116.4Y-83.65
X116.4Y-85.65
X116.4Y-87.65
X116.4Y-89.65
X116.4Y-91.65
X116.4Y-93.65
X116.4Y-95.65
X116.4Y-97.65
X116.4Y-99.65
X116.4Y-101.65
X116.4Y-103.65
X116.4Y-107.65
X118.4Y-45.651
X118.4Y-51.651
X118.4Y-53.651
X118.4Y-61.65
X118.4Y-63.65
X118.4Y-65.65
X118.4Y-67.65
X118.4Y-69.65
X118.4Y-71.65
X118.4Y-73.65
X118.4Y-75.65
X118.4Y-77.65
X118.4Y-79.65
X118.4Y-83.65
X118.4Y-85.65
X118.4Y-87.65
X118.4Y-89.65
X118.4Y-91.65
X118.4Y-93.65
X118.4Y-95.65
X118.4Y-97.65
X118.4Y-99.65
X118.4Y-101.65
X118.4Y-103.65
X118.4Y-107.65
X120.4Y-45.651
X120.4Y-51.651
X120.4Y-59.65
X120.4Y-61.65
X120.4Y-63.65
X120.4Y-65.65
X120.4Y-67.65
X120.4Y-69.65
X120.4Y-71.65
X120.4Y-73.65
X120.4Y-75.65
X120.4Y-77.65
X120.4Y-79.65
X120.4Y-83.65
X120.4Y-85.65
X120.4Y-87.65
X120.4Y-89.65
X120.4Y-91.65
X120.4Y-93.65
X120.4Y-95.65
X120.4Y-97.65
X120.4Y-99.65
X120.4Y-101.65
X120.4Y-103.65
X120.4Y-107.65
X122.4Y-45.651
X122.4Y-51.651
X122.4Y-59.65
X122.4Y-61.65
X122.4Y-63.65
X122.4Y-65.65
X122.4Y-67.65
X122.4Y-69.65
X122.4Y-71.65
X122.4Y-73.65
X122.4Y-75.65
X122.4Y-77.65
X122.4Y-79.65
X122.4Y-83.65
X122.4Y-85.65
X122.4Y-87.65
X122.4Y-89.65
X122.4Y-91.65
X122.4Y-93.65
X122.4Y-95.65
X122.4Y-97.65
X122.4Y-99.65
X122.4Y-101.65
X122.4Y-103.65
X122.4Y-107.65
X123.14Y-54.76
X124.05Y-80.78
X124.4Y-45.651
X124.4Y-51.651
X124.4Y-53.651
X124.4Y-107.65
X126.4Y-45.651
X126.4Y-93.65
X126.4Y-95.65
X126.4Y-97.65
X126.4Y-101.65
X126.4Y-103.65
X126.4Y-105.65
X126.4Y-107.65
X126.5Y-91.01
X126.775Y-49.85
X126.775Y-81.0
X128.4Y-45.651
X128.4Y-47.651
X128.4Y-51.651
X128.4Y-53.651
X128.4Y-55.651
X128.4Y-61.65
X128.4Y-63.65
X128.4Y-65.65
X128.4Y-67.65
X128.4Y-69.65
X128.4Y-71.65
X128.4Y-73.65
X128.4Y-75.65
X128.4Y-77.65
X128.4Y-79.65
X128.4Y-87.65
X128.4Y-89.65
X128.4Y-95.65
X128.4Y-97.65
X128.4Y-101.65
X128.4Y-103.65
X128.4Y-105.65
X128.4Y-107.65
X130.4Y-45.651
X130.4Y-47.651
X130.4Y-51.651
X130.4Y-53.651
X130.4Y-61.65
X130.4Y-63.65
X130.4Y-65.65
X130.4Y-67.65
X130.4Y-69.65
X130.4Y-71.65
X130.4Y-73.65
X130.4Y-75.65
X130.4Y-77.65
X130.4Y-79.65
X130.4Y-87.65
X130.4Y-89.65
X130.4Y-93.65
X130.4Y-95.65
X130.4Y-97.65
X130.4Y-101.65
X130.4Y-103.65
X130.4Y-105.65
X130.4Y-107.65
X132.4Y-51.651
X132.4Y-59.65
X132.4Y-61.65
X132.4Y-63.65
X132.4Y-65.65
X132.4Y-67.65
X132.4Y-69.65
X132.4Y-71.65
X132.4Y-73.65
X132.4Y-75.65
X132.4Y-77.65
X132.4Y-79.65
X132.4Y-93.65
X132.4Y-95.65
X132.4Y-97.65
X132.4Y-101.65
X132.4Y-103.65
X132.4Y-105.65
X132.4Y-107.65
X132.5Y-49.85
X134.4Y-51.651
X134.4Y-53.651
X134.4Y-57.65
X134.4Y-59.65
X134.4Y-69.65
X134.4Y-71.65
X134.4Y-73.65
X134.4Y-75.65
X134.4Y-77.65
X134.4Y-79.65
X134.4Y-89.65
X134.4Y-93.65
X134.4Y-95.65
X134.4Y-97.65
X134.4Y-101.65
X134.4Y-103.65
X134.4Y-105.65
X134.4Y-107.65
X136.4Y-51.651
X136.4Y-59.65
X136.4Y-61.65
X136.4Y-69.65
X136.4Y-71.65
X136.4Y-73.65
X136.4Y-75.65
X136.4Y-77.65
X136.4Y-79.65
X136.4Y-93.65
X136.4Y-95.65
X136.4Y-97.65
X136.4Y-101.65
X136.4Y-103.65
X136.4Y-105.65
X136.4Y-107.65
X136.4Y-109.65
X136.4Y-111.65
X136.4Y-113.65
X138.4Y-79.65
X138.4Y-85.65
X138.4Y-107.65
X138.4Y-109.65
X138.4Y-111.65
X138.4Y-113.65
X138.4Y-115.65
X138.4Y-135.65
X140.4Y-79.65
X140.4Y-101.65
X140.4Y-103.65
X140.4Y-105.65
X140.4Y-109.65
X140.4Y-111.65
X140.4Y-113.65
X140.4Y-115.65
X140.4Y-117.65
X140.4Y-121.65
X140.4Y-123.65
X140.4Y-125.65
X140.4Y-127.65
X140.4Y-129.65
X140.4Y-133.65
X140.4Y-135.65
X142.4Y-47.651
X142.4Y-51.651
X142.4Y-53.651
X142.4Y-55.651
X142.4Y-65.65
X142.4Y-67.65
X142.4Y-69.65
X142.4Y-71.65
X142.4Y-73.65
X142.4Y-79.65
X142.4Y-101.65
X142.4Y-103.65
X142.4Y-105.65
X142.4Y-107.65
X142.4Y-111.65
X142.4Y-113.65
X142.4Y-115.65
X142.4Y-121.65
X142.4Y-123.65
X142.4Y-125.65
X142.4Y-127.65
X142.4Y-129.65
X142.4Y-133.65
X142.4Y-135.65
X143.85Y-49.85
X144.2Y-91.002
X144.38Y-99.87
X144.4Y-53.651
X144.4Y-55.651
X144.4Y-61.65
X144.4Y-67.65
X144.4Y-69.65
X144.4Y-71.65
X144.4Y-73.65
X144.4Y-79.65
X144.4Y-113.65
X144.4Y-115.65
X144.4Y-119.65
X144.4Y-121.65
X144.4Y-123.65
X144.4Y-125.65
X144.4Y-127.65
X144.4Y-129.65
X144.4Y-133.65
X144.4Y-135.65
X144.458Y-95.28
X144.525Y-94.325
X145.025Y-93.56
X145.602Y-85.225
X146.4Y-45.651
X146.4Y-47.651
X146.4Y-49.651
X146.4Y-53.651
X146.4Y-55.651
X146.4Y-65.65
X146.4Y-67.65
X146.4Y-69.65
X146.4Y-71.65
X146.4Y-73.65
X146.4Y-79.65
X146.4Y-91.65
X146.4Y-115.65
X146.4Y-119.65
X146.4Y-121.65
X146.4Y-123.65
X146.4Y-129.65
X146.4Y-135.65
X146.725Y-81.825
X147.675Y-82.55
X147.938Y-95.737
X148.0Y-79.525
X148.275Y-91.025
X148.4Y-45.651
X148.4Y-47.651
X148.4Y-49.651
X148.4Y-53.651
X148.4Y-55.651
X148.4Y-71.65
X148.4Y-73.65
X148.4Y-101.65
X148.4Y-103.65
X148.4Y-107.65
X148.4Y-129.65
X148.4Y-135.65
X148.95Y-95.76
X148.975Y-79.375
X148.975Y-90.375
X149.965Y-90.56
X150.4Y-45.651
X150.4Y-47.651
X150.4Y-49.651
X150.4Y-53.651
X150.4Y-55.651
X150.4Y-65.65
X150.4Y-67.65
X150.4Y-69.65
X150.4Y-71.65
X150.4Y-73.65
X150.4Y-75.65
X150.4Y-77.65
X150.4Y-79.65
X150.4Y-101.65
X150.4Y-103.65
X150.4Y-107.65
X150.4Y-125.65
X150.4Y-127.65
X150.4Y-129.65
X150.4Y-131.65
X150.4Y-133.65
X150.4Y-135.65
X151.075Y-86.05
X152.4Y-45.651
X152.4Y-47.651
X152.4Y-49.651
X152.4Y-53.651
X152.4Y-57.65
X152.4Y-65.65
X152.4Y-67.65
X152.4Y-69.65
X152.4Y-71.65
X152.4Y-73.65
X152.4Y-75.65
X152.4Y-77.65
X152.4Y-79.65
X152.4Y-103.65
X152.4Y-105.65
X152.4Y-107.65
X152.4Y-109.65
X152.4Y-123.65
X152.4Y-125.65
X152.4Y-129.65
X152.4Y-135.65
X154.2Y-93.975
X154.4Y-45.651
X154.4Y-47.651
X154.4Y-49.651
X154.4Y-53.651
X154.4Y-55.651
X154.4Y-57.65
X154.4Y-59.65
X154.4Y-69.65
X154.4Y-71.65
X154.4Y-73.65
X154.4Y-75.65
X154.4Y-77.65
X154.4Y-79.65
X154.4Y-83.65
X154.4Y-107.65
X154.4Y-115.65
X154.4Y-129.65
X154.4Y-135.65
X155.45Y-85.4
X156.1Y-95.95
X156.4Y-45.651
X156.4Y-47.651
X156.4Y-49.651
X156.4Y-53.651
X156.4Y-71.65
X156.4Y-75.65
X156.4Y-77.65
X156.4Y-79.65
X156.4Y-83.65
X156.4Y-87.65
X156.4Y-105.65
X156.4Y-107.65
X156.4Y-109.65
X156.4Y-117.65
X156.4Y-119.65
X156.4Y-121.65
X156.4Y-123.65
X156.4Y-125.65
X156.4Y-127.65
X156.4Y-129.65
X156.4Y-131.65
X156.4Y-133.65
X156.4Y-135.65
X158.4Y-45.651
X158.4Y-47.651
X158.4Y-49.651
X158.4Y-53.651
X158.4Y-71.65
X158.4Y-75.65
X158.4Y-77.65
X158.4Y-79.65
X158.4Y-83.65
X158.4Y-87.65
X158.4Y-101.65
X158.4Y-103.65
X158.4Y-113.65
X158.4Y-117.65
X158.4Y-119.65
X158.4Y-121.65
X158.4Y-123.65
X158.4Y-125.65
X158.4Y-127.65
X158.4Y-129.65
X158.4Y-131.65
X158.4Y-133.65
X158.4Y-135.65
X159.43Y-90.175
X159.43Y-92.125
X160.03Y-82.56
X160.4Y-45.651
X160.4Y-47.651
X160.4Y-49.651
X160.4Y-53.651
X160.4Y-55.651
X160.4Y-57.65
X160.4Y-75.65
X160.4Y-77.65
X160.4Y-79.65
X160.4Y-117.65
X160.4Y-119.65
X160.4Y-121.65
X160.4Y-123.65
X160.4Y-125.65
X160.4Y-127.65
X160.4Y-129.65
X160.4Y-131.65
X160.4Y-133.65
X160.4Y-135.65
X160.63Y-94.55
X161.055Y-99.985
X162.4Y-45.651
X162.4Y-47.651
X162.4Y-49.651
X162.4Y-73.65
X162.4Y-75.65
X162.4Y-77.65
X162.4Y-79.65
X162.4Y-81.65
X162.4Y-83.65
X162.4Y-87.65
X162.4Y-97.65
X162.4Y-101.65
X162.4Y-103.65
X162.4Y-105.65
X162.4Y-107.65
X162.4Y-109.65
X162.4Y-111.65
X162.4Y-113.65
X162.4Y-115.65
X162.4Y-117.65
X162.4Y-119.65
X162.4Y-121.65
X162.4Y-123.65
X162.4Y-125.65
X162.4Y-127.65
X162.4Y-129.65
X162.4Y-131.65
X162.4Y-133.65
X162.4Y-135.65
X163.0Y-51.0
X163.0Y-60.15
X164.4Y-45.651
X164.4Y-47.651
X164.4Y-49.651
X164.4Y-51.651
X164.4Y-53.651
X164.4Y-55.651
X164.4Y-57.65
X164.4Y-67.65
X164.4Y-69.65
X164.4Y-71.65
X164.4Y-73.65
X164.4Y-75.65
X164.4Y-77.65
X164.4Y-79.65
X164.4Y-81.65
X164.4Y-83.65
X164.4Y-87.65
X164.4Y-97.65
X164.4Y-105.65
X164.4Y-107.65
X164.4Y-109.65
X164.4Y-115.65
X164.4Y-117.65
X164.4Y-119.65
X164.4Y-121.65
X164.4Y-123.65
X164.4Y-125.65
X164.4Y-127.65
X164.4Y-129.65
X164.4Y-131.65
X164.4Y-133.65
X164.4Y-135.65
X166.4Y-45.651
X166.4Y-47.651
X166.4Y-49.651
X166.4Y-51.651
X166.4Y-53.651
X166.4Y-55.651
X166.4Y-57.65
X166.4Y-61.65
X166.4Y-73.65
X166.4Y-75.65
X166.4Y-77.65
X166.4Y-79.65
X166.4Y-81.65
X166.4Y-105.65
X166.4Y-107.65
X166.4Y-109.65
X166.4Y-117.65
X166.4Y-119.65
X166.4Y-121.65
X166.4Y-123.65
X166.4Y-125.65
X166.4Y-127.65
X166.4Y-129.65
X166.4Y-131.65
X166.4Y-133.65
X166.4Y-135.65
X167.18Y-82.55
X168.4Y-45.651
X168.4Y-47.651
X168.4Y-49.651
X168.4Y-51.651
X168.4Y-53.651
X168.4Y-55.651
X168.4Y-57.65
X168.4Y-61.65
X168.4Y-73.65
X168.4Y-75.65
X168.4Y-77.65
X168.4Y-79.65
X168.4Y-81.65
X168.4Y-83.65
X168.4Y-87.65
X168.4Y-101.65
X168.4Y-103.65
X168.4Y-105.65
X168.4Y-107.65
X168.4Y-109.65
X168.4Y-111.65
X168.4Y-115.65
X168.4Y-117.65
X168.4Y-119.65
X168.4Y-121.65
X168.4Y-123.65
X168.4Y-125.65
X168.4Y-127.65
X168.4Y-129.65
X168.4Y-131.65
X168.4Y-133.65
X168.4Y-135.65
X169.22Y-90.075
X169.82Y-92.13
X169.875Y-63.825
X170.4Y-65.0
X170.4Y-45.651
X170.4Y-47.651
X170.4Y-49.651
X170.4Y-51.651
X170.4Y-53.651
X170.4Y-55.651
X170.4Y-57.65
X170.4Y-59.65
X170.4Y-93.65
X170.4Y-97.65
X170.4Y-101.65
X170.4Y-103.65
X170.4Y-105.65
X170.4Y-107.65
X170.4Y-109.65
X170.4Y-111.65
X170.4Y-113.65
X170.4Y-115.65
X170.4Y-117.65
X170.4Y-119.65
X170.4Y-121.65
X170.4Y-123.65
X170.4Y-125.65
X170.4Y-127.65
X170.4Y-129.65
X170.4Y-131.65
X170.4Y-133.65
X170.4Y-135.65
X171.0Y-66.29
X171.6Y-67.9
X171.6Y-69.1
X172.4Y-65.8
X172.4Y-45.651
X172.4Y-47.651
X172.4Y-49.651
X172.4Y-51.651
X172.4Y-53.651
X172.4Y-55.651
X172.4Y-57.65
X172.4Y-59.65
X172.4Y-61.65
X172.4Y-71.65
X172.4Y-73.65
X172.4Y-75.65
X172.4Y-77.65
X172.4Y-79.65
X172.4Y-93.65
X172.4Y-95.65
X172.4Y-97.65
X172.4Y-101.65
X172.4Y-103.65
X172.4Y-107.65
X172.4Y-113.65
X172.4Y-115.65
X172.4Y-117.65
X172.4Y-119.65
X172.4Y-121.65
X172.4Y-123.65
X172.4Y-125.65
X172.4Y-127.65
X172.4Y-129.65
X172.4Y-131.65
X172.4Y-133.65
X172.4Y-135.65
X172.425Y-69.575
X173.5Y-71.45
X173.675Y-64.85
X174.4Y-45.651
X174.4Y-47.651
X174.4Y-49.651
X174.4Y-51.651
X174.4Y-53.651
X174.4Y-55.651
X174.4Y-57.65
X174.4Y-59.65
X174.4Y-77.65
X174.4Y-79.65
X174.4Y-81.65
X174.4Y-83.65
X174.4Y-85.65
X174.4Y-87.65
X174.4Y-89.65
X174.4Y-91.65
X174.4Y-93.65
X174.4Y-95.65
X174.4Y-97.65
X174.4Y-103.65
X174.4Y-107.65
X174.4Y-109.65
X174.4Y-111.65
X174.4Y-113.65
X174.4Y-115.65
X174.4Y-117.65
X174.4Y-119.65
X174.4Y-121.65
X174.4Y-123.65
X174.4Y-125.65
X174.4Y-127.65
X174.4Y-129.65
X174.4Y-131.65
X174.4Y-133.65
X174.4Y-135.65
X176.4Y-45.651
X176.4Y-47.651
X176.4Y-49.651
X176.4Y-51.651
X176.4Y-53.651
X176.4Y-55.651
X176.4Y-57.65
X176.4Y-59.65
X176.4Y-75.65
X176.4Y-77.65
X176.4Y-79.65
X176.4Y-81.65
X176.4Y-83.65
X176.4Y-85.65
X176.4Y-87.65
X176.4Y-89.65
X176.4Y-91.65
X176.4Y-93.65
X176.4Y-97.65
X176.4Y-99.65
X176.4Y-103.65
X176.4Y-109.65
X176.4Y-111.65
X176.4Y-113.65
X176.4Y-115.65
X176.4Y-117.65
X176.4Y-119.65
X176.4Y-121.65
X176.4Y-123.65
X176.4Y-125.65
X176.4Y-127.65
X176.4Y-129.65
X176.4Y-131.65
X176.4Y-133.65
X176.4Y-135.65
X178.4Y-45.651
X178.4Y-47.651
X178.4Y-49.651
X178.4Y-51.651
X178.4Y-53.651
X178.4Y-55.651
X178.4Y-57.65
X178.4Y-59.65
X178.4Y-65.65
X178.4Y-67.65
X178.4Y-69.65
X178.4Y-71.65
X178.4Y-77.65
X178.4Y-79.65
X178.4Y-81.65
X178.4Y-83.65
X178.4Y-85.65
X178.4Y-87.65
X178.4Y-89.65
X178.4Y-91.65
X178.4Y-93.65
X178.4Y-97.65
X178.4Y-99.65
X178.4Y-109.65
X178.4Y-111.65
X178.4Y-113.65
X178.4Y-115.65
X178.4Y-117.65
X178.4Y-119.65
X178.4Y-121.65
X178.4Y-123.65
X178.4Y-125.65
X178.4Y-127.65
X178.4Y-129.65
X178.4Y-131.65
X178.4Y-133.65
X178.4Y-135.65
X179.65Y-98.7
X180.4Y-45.651
X180.4Y-47.651
X180.4Y-49.651
X180.4Y-51.651
X180.4Y-53.651
X180.4Y-55.651
X180.4Y-57.65
X180.4Y-59.65
X180.4Y-61.65
X180.4Y-65.65
X180.4Y-67.65
X180.4Y-69.65
X180.4Y-73.65
X180.4Y-75.65
X180.4Y-77.65
X180.4Y-79.65
X180.4Y-81.65
X180.4Y-83.65
X180.4Y-85.65
X180.4Y-87.65
X180.4Y-89.65
X180.4Y-91.65
X180.4Y-93.65
X180.4Y-95.65
X180.4Y-97.65
X180.4Y-107.65
X180.4Y-109.65
X180.4Y-111.65
X180.4Y-113.65
X180.4Y-115.65
X180.4Y-117.65
X180.4Y-119.65
X180.4Y-121.65
X180.4Y-123.65
X180.4Y-125.65
X180.4Y-127.65
X180.4Y-129.65
X180.4Y-131.65
X180.4Y-133.65
X180.4Y-135.65
T3
X131.22Y-119.48
X131.22Y-132.18
X132.51Y-47.8
X135.05Y-47.8
X137.59Y-47.8
X140.13Y-47.8
X141.22Y-119.48
X141.22Y-132.18
X172.0Y-82.86
X172.0Y-85.4
X172.0Y-87.94
X172.0Y-90.48
T4
X158.525Y-105.457
X158.525Y-107.957
X158.525Y-110.457
X173.025Y-105.457
X173.025Y-110.457
T5
X134.75Y-63.0
X134.75Y-66.5
T6
X94.675Y-92.625
X101.675Y-92.625
T7
X166.025Y-102.457
X166.025Y-113.457
T8
X91.125Y-62.8
X91.125Y-81.475
X93.025Y-132.65
X93.65Y-118.125
T2
G00X176.002Y-63.932
M15
G01X174.903Y-63.932
M16
G05
G00X176.002Y-72.568
M15
G01X174.903Y-72.568
M16
G05
G00X179.933Y-63.932
M15
G01X179.332Y-63.932
M16
G05
G00X179.933Y-72.568
M15
G01X179.332Y-72.568
M16
G05
M30
