%TF.GenerationSoftware,KiCad,Pcbnew,10.0.5-1.fc43*%
%TF.CreationDate,2026-07-29T15:29:54+07:00*%
%TF.ProjectId,Energy_Meter,456e6572-6779-45f4-9d65-7465722e6b69,rev?*%
%TF.SameCoordinates,Original*%
%TF.FileFunction,Paste,Bot*%
%TF.FilePolarity,Positive*%
%FSLAX46Y46*%
G04 Gerber Fmt 4.6, Leading zero omitted, Abs format (unit mm)*
G04 Created by KiCad (PCBNEW 10.0.5-1.fc43) date 2026-07-29 15:29:54*
%MOMM*%
%LPD*%
G01*
G04 APERTURE LIST*
G04 Aperture macros list*
%AMRoundRect*
0 Rectangle with rounded corners*
0 $1 Rounding radius*
0 $2 $3 $4 $5 $6 $7 $8 $9 X,Y pos of 4 corners*
0 Add a 4 corners polygon primitive as box body*
4,1,4,$2,$3,$4,$5,$6,$7,$8,$9,$2,$3,0*
0 Add four circle primitives for the rounded corners*
1,1,$1+$1,$2,$3*
1,1,$1+$1,$4,$5*
1,1,$1+$1,$6,$7*
1,1,$1+$1,$8,$9*
0 Add four rect primitives between the rounded corners*
20,1,$1+$1,$2,$3,$4,$5,0*
20,1,$1+$1,$4,$5,$6,$7,0*
20,1,$1+$1,$6,$7,$8,$9,0*
20,1,$1+$1,$8,$9,$2,$3,0*%
G04 Aperture macros list end*
%ADD10C,0.010000*%
%ADD11C,0.000000*%
%ADD12RoundRect,0.250000X-0.625000X0.375000X-0.625000X-0.375000X0.625000X-0.375000X0.625000X0.375000X0*%
%ADD13RoundRect,0.250000X-0.250000X-0.475000X0.250000X-0.475000X0.250000X0.475000X-0.250000X0.475000X0*%
%ADD14RoundRect,0.250000X0.625000X-0.375000X0.625000X0.375000X-0.625000X0.375000X-0.625000X-0.375000X0*%
%ADD15RoundRect,0.375000X0.625000X0.375000X-0.625000X0.375000X-0.625000X-0.375000X0.625000X-0.375000X0*%
%ADD16RoundRect,0.500000X0.500000X1.400000X-0.500000X1.400000X-0.500000X-1.400000X0.500000X-1.400000X0*%
%ADD17RoundRect,0.250000X0.475000X-0.250000X0.475000X0.250000X-0.475000X0.250000X-0.475000X-0.250000X0*%
%ADD18RoundRect,0.250000X-0.475000X0.250000X-0.475000X-0.250000X0.475000X-0.250000X0.475000X0.250000X0*%
%ADD19RoundRect,0.250000X-0.450000X0.262500X-0.450000X-0.262500X0.450000X-0.262500X0.450000X0.262500X0*%
%ADD20RoundRect,0.073750X0.731250X0.221250X-0.731250X0.221250X-0.731250X-0.221250X0.731250X-0.221250X0*%
%ADD21R,1.000000X0.300000*%
%ADD22O,1.600000X1.000000*%
%ADD23O,2.100000X1.000000*%
%ADD24RoundRect,0.150000X0.825000X0.150000X-0.825000X0.150000X-0.825000X-0.150000X0.825000X-0.150000X0*%
%ADD25R,1.600000X1.200000*%
%ADD26RoundRect,0.250000X0.312500X0.625000X-0.312500X0.625000X-0.312500X-0.625000X0.312500X-0.625000X0*%
%ADD27RoundRect,0.218750X-0.381250X0.218750X-0.381250X-0.218750X0.381250X-0.218750X0.381250X0.218750X0*%
%ADD28RoundRect,0.218750X-0.218750X-0.381250X0.218750X-0.381250X0.218750X0.381250X-0.218750X0.381250X0*%
%ADD29R,1.250000X1.000000*%
%ADD30O,1.200000X0.600000*%
%ADD31O,1.700000X0.600000*%
G04 APERTURE END LIST*
D10*
%TO.C,U5*%
X152103500Y-61925000D02*
X150706500Y-61925000D01*
X150706500Y-63885000D01*
X152103500Y-63885000D01*
X152103500Y-61925000D01*
G36*
X152103500Y-63885000D02*
G01*
X150706500Y-63885000D01*
X150706500Y-61925000D01*
X152103500Y-61925000D01*
X152103500Y-63885000D01*
G37*
D11*
%TO.C,J3*%
G36*
X175377500Y-65225000D02*
G01*
X174377500Y-65225000D01*
X174377500Y-64825000D01*
X175377500Y-64825000D01*
X175377500Y-65225000D01*
G37*
G36*
X175377500Y-66000000D02*
G01*
X174377500Y-66000000D01*
X174377500Y-65600000D01*
X175377500Y-65600000D01*
X175377500Y-66000000D01*
G37*
G36*
X175377500Y-70900000D02*
G01*
X174377500Y-70900000D01*
X174377500Y-70500000D01*
X175377500Y-70500000D01*
X175377500Y-70900000D01*
G37*
G36*
X175377500Y-71675000D02*
G01*
X174377500Y-71675000D01*
X174377500Y-71275000D01*
X175377500Y-71275000D01*
X175377500Y-71675000D01*
G37*
%TD*%
D12*
%TO.C,D1*%
X156750000Y-65200000D03*
X156750000Y-68000000D03*
%TD*%
D13*
%TO.C,C24*%
X162375000Y-61875000D03*
X164275000Y-61875000D03*
%TD*%
D14*
%TO.C,D2*%
X159250000Y-68000000D03*
X159250000Y-65200000D03*
%TD*%
D15*
%TO.C,U4*%
X137900000Y-53750000D03*
X137900000Y-56050000D03*
D16*
X131600000Y-56050000D03*
D15*
X137900000Y-58350000D03*
%TD*%
D17*
%TO.C,C5*%
X147852000Y-59000000D03*
X147852000Y-57100000D03*
%TD*%
D18*
%TO.C,C22*%
X115750000Y-57100000D03*
X115750000Y-59000000D03*
%TD*%
D17*
%TO.C,C21*%
X126750000Y-59050000D03*
X126750000Y-57150000D03*
%TD*%
D19*
%TO.C,R39*%
X148950000Y-92675000D03*
X148950000Y-94500000D03*
%TD*%
D17*
%TO.C,C39*%
X140250000Y-59000000D03*
X140250000Y-57100000D03*
%TD*%
D20*
%TO.C,U5*%
X154060000Y-61000000D03*
X154060000Y-62270000D03*
X154060000Y-63540000D03*
X154060000Y-64810000D03*
X148750000Y-64810000D03*
X148750000Y-63540000D03*
X148750000Y-62270000D03*
X148750000Y-61000000D03*
%TD*%
D21*
%TO.C,J3*%
X174877500Y-67000000D03*
X174877500Y-68000000D03*
X174877500Y-68500000D03*
X174877500Y-69500000D03*
X174877500Y-70000000D03*
X174877500Y-69000000D03*
X174877500Y-67500000D03*
X174877500Y-66500000D03*
D22*
X179632500Y-63932000D03*
D23*
X175452500Y-63932000D03*
X175452500Y-72568000D03*
D22*
X179632500Y-72568000D03*
%TD*%
D17*
%TO.C,C9*%
X145250000Y-59000000D03*
X145250000Y-57100000D03*
%TD*%
D24*
%TO.C,U3*%
X167200000Y-63750000D03*
X167200000Y-65020000D03*
X167200000Y-66290000D03*
X167200000Y-67560000D03*
X167200000Y-68830000D03*
X167200000Y-70100000D03*
X167200000Y-71370000D03*
X167200000Y-72640000D03*
X162250000Y-72640000D03*
X162250000Y-71370000D03*
X162250000Y-70100000D03*
X162250000Y-68830000D03*
X162250000Y-67560000D03*
X162250000Y-66290000D03*
X162250000Y-65020000D03*
X162250000Y-63750000D03*
%TD*%
D25*
%TO.C,R36*%
X157250000Y-62500000D03*
X157250000Y-59500000D03*
%TD*%
D14*
%TO.C,D3*%
X156750000Y-73000000D03*
X156750000Y-70200000D03*
%TD*%
D17*
%TO.C,C13*%
X157250000Y-57450000D03*
X157250000Y-55550000D03*
%TD*%
D18*
%TO.C,C3*%
X124300000Y-57000000D03*
X124300000Y-58900000D03*
%TD*%
D26*
%TO.C,R2*%
X178000000Y-61890000D03*
X175075000Y-61890000D03*
%TD*%
D12*
%TO.C,D4*%
X159250000Y-70200000D03*
X159250000Y-73000000D03*
%TD*%
D19*
%TO.C,R34*%
X146500000Y-93287500D03*
X146500000Y-95112500D03*
%TD*%
D27*
%TO.C,L1*%
X146750000Y-62000000D03*
X146750000Y-64125000D03*
%TD*%
D28*
%TO.C,FB1*%
X120187500Y-57400000D03*
X122312500Y-57400000D03*
%TD*%
D17*
%TO.C,C4*%
X150250000Y-59000000D03*
X150250000Y-57100000D03*
%TD*%
D26*
%TO.C,R1*%
X178000000Y-74640000D03*
X175075000Y-74640000D03*
%TD*%
D17*
%TO.C,C20*%
X142750000Y-59000000D03*
X142750000Y-57100000D03*
%TD*%
D18*
%TO.C,C17*%
X118175000Y-57221780D03*
X118175000Y-59121780D03*
%TD*%
%TO.C,C38*%
X129250000Y-57100000D03*
X129250000Y-59000000D03*
%TD*%
D29*
%TO.C,SW6*%
X140950000Y-69120000D03*
X148700000Y-69120000D03*
%TD*%
D18*
%TO.C,C36*%
X139750000Y-61180000D03*
X139750000Y-63080000D03*
%TD*%
%TO.C,C37*%
X144750000Y-64175000D03*
X144750000Y-66075000D03*
%TD*%
D25*
%TO.C,R35*%
X142250000Y-64175000D03*
X142250000Y-61175000D03*
%TD*%
D17*
%TO.C,C34*%
X159750000Y-62450000D03*
X159750000Y-60550000D03*
%TD*%
D30*
X179632500Y-63932000D03*
D31*
X175452500Y-63932000D03*
X175452500Y-72568000D03*
D30*
X179632500Y-72568000D03*
M02*
