%TF.GenerationSoftware,KiCad,Pcbnew,10.0.5-1.fc43*%
%TF.CreationDate,2026-07-29T15:29:54+07:00*%
%TF.ProjectId,Energy_Meter,456e6572-6779-45f4-9d65-7465722e6b69,rev?*%
%TF.SameCoordinates,Original*%
%TF.FileFunction,Legend,Bot*%
%TF.FilePolarity,Positive*%
%FSLAX46Y46*%
G04 Gerber Fmt 4.6, Leading zero omitted, Abs format (unit mm)*
G04 Created by KiCad (PCBNEW 10.0.5-1.fc43) date 2026-07-29 15:29:54*
%MOMM*%
%LPD*%
G01*
G04 APERTURE LIST*
G04 Aperture macros list*
%AMRoundRect*
0 Rectangle with rounded corners*
0 $1 Rounding radius*
0 $2 $3 $4 $5 $6 $7 $8 $9 X,Y pos of 4 corners*
0 Add a 4 corners polygon primitive as box body*
4,1,4,$2,$3,$4,$5,$6,$7,$8,$9,$2,$3,0*
0 Add four circle primitives for the rounded corners*
1,1,$1+$1,$2,$3*
1,1,$1+$1,$4,$5*
1,1,$1+$1,$6,$7*
1,1,$1+$1,$8,$9*
0 Add four rect primitives between the rounded corners*
20,1,$1+$1,$2,$3,$4,$5,0*
20,1,$1+$1,$4,$5,$6,$7,0*
20,1,$1+$1,$6,$7,$8,$9,0*
20,1,$1+$1,$8,$9,$2,$3,0*%
G04 Aperture macros list end*
%ADD10C,0.125000*%
%ADD11C,0.150000*%
%ADD12C,0.508000*%
%ADD13C,0.177800*%
%ADD14C,0.120000*%
%ADD15C,0.127000*%
%ADD16C,0.200000*%
%ADD17C,0.203200*%
%ADD18RoundRect,0.102000X-0.754000X-0.754000X0.754000X-0.754000X0.754000X0.754000X-0.754000X0.754000X0*%
%ADD19C,1.712000*%
%ADD20C,8.600000*%
%ADD21R,1.700000X1.700000*%
%ADD22C,1.700000*%
%ADD23C,1.800000*%
%ADD24C,3.556000*%
%ADD25C,1.600200*%
%ADD26C,0.500000*%
%ADD27RoundRect,0.250000X-0.625000X0.375000X-0.625000X-0.375000X0.625000X-0.375000X0.625000X0.375000X0*%
%ADD28RoundRect,0.250000X-0.250000X-0.475000X0.250000X-0.475000X0.250000X0.475000X-0.250000X0.475000X0*%
%ADD29RoundRect,0.250000X0.625000X-0.375000X0.625000X0.375000X-0.625000X0.375000X-0.625000X-0.375000X0*%
%ADD30RoundRect,0.375000X0.625000X0.375000X-0.625000X0.375000X-0.625000X-0.375000X0.625000X-0.375000X0*%
%ADD31RoundRect,0.500000X0.500000X1.400000X-0.500000X1.400000X-0.500000X-1.400000X0.500000X-1.400000X0*%
%ADD32RoundRect,0.250000X0.475000X-0.250000X0.475000X0.250000X-0.475000X0.250000X-0.475000X-0.250000X0*%
%ADD33RoundRect,0.250000X-0.475000X0.250000X-0.475000X-0.250000X0.475000X-0.250000X0.475000X0.250000X0*%
%ADD34RoundRect,0.250000X-0.450000X0.262500X-0.450000X-0.262500X0.450000X-0.262500X0.450000X0.262500X0*%
%ADD35RoundRect,0.175750X0.731250X0.221250X-0.731250X0.221250X-0.731250X-0.221250X0.731250X-0.221250X0*%
%ADD36RoundRect,0.102000X1.105000X1.550000X-1.105000X1.550000X-1.105000X-1.550000X1.105000X-1.550000X0*%
%ADD37R,2.500000X2.500000*%
%ADD38C,2.500000*%
%ADD39C,0.650000*%
%ADD40R,1.000000X0.300000*%
%ADD41R,1.000000X0.600000*%
%ADD42O,1.600000X1.000000*%
%ADD43O,2.100000X1.000000*%
%ADD44RoundRect,0.150000X0.825000X0.150000X-0.825000X0.150000X-0.825000X-0.150000X0.825000X-0.150000X0*%
%ADD45R,1.600000X1.200000*%
%ADD46RoundRect,0.250000X0.312500X0.625000X-0.312500X0.625000X-0.312500X-0.625000X0.312500X-0.625000X0*%
%ADD47RoundRect,0.218750X-0.381250X0.218750X-0.381250X-0.218750X0.381250X-0.218750X0.381250X0.218750X0*%
%ADD48RoundRect,0.218750X-0.218750X-0.381250X0.218750X-0.381250X0.218750X0.381250X-0.218750X0.381250X0*%
%ADD49R,1.250000X1.000000*%
G04 APERTURE END LIST*
D10*
X164621428Y-60627190D02*
X164645237Y-60651000D01*
X164645237Y-60651000D02*
X164716666Y-60674809D01*
X164716666Y-60674809D02*
X164764285Y-60674809D01*
X164764285Y-60674809D02*
X164835713Y-60651000D01*
X164835713Y-60651000D02*
X164883332Y-60603380D01*
X164883332Y-60603380D02*
X164907142Y-60555761D01*
X164907142Y-60555761D02*
X164930951Y-60460523D01*
X164930951Y-60460523D02*
X164930951Y-60389095D01*
X164930951Y-60389095D02*
X164907142Y-60293857D01*
X164907142Y-60293857D02*
X164883332Y-60246238D01*
X164883332Y-60246238D02*
X164835713Y-60198619D01*
X164835713Y-60198619D02*
X164764285Y-60174809D01*
X164764285Y-60174809D02*
X164716666Y-60174809D01*
X164716666Y-60174809D02*
X164645237Y-60198619D01*
X164645237Y-60198619D02*
X164621428Y-60222428D01*
X164430951Y-60222428D02*
X164407142Y-60198619D01*
X164407142Y-60198619D02*
X164359523Y-60174809D01*
X164359523Y-60174809D02*
X164240475Y-60174809D01*
X164240475Y-60174809D02*
X164192856Y-60198619D01*
X164192856Y-60198619D02*
X164169047Y-60222428D01*
X164169047Y-60222428D02*
X164145237Y-60270047D01*
X164145237Y-60270047D02*
X164145237Y-60317666D01*
X164145237Y-60317666D02*
X164169047Y-60389095D01*
X164169047Y-60389095D02*
X164454761Y-60674809D01*
X164454761Y-60674809D02*
X164145237Y-60674809D01*
X163716666Y-60341476D02*
X163716666Y-60674809D01*
X163835714Y-60151000D02*
X163954761Y-60508142D01*
X163954761Y-60508142D02*
X163645238Y-60508142D01*
X135130952Y-51774809D02*
X135130952Y-52179571D01*
X135130952Y-52179571D02*
X135107142Y-52227190D01*
X135107142Y-52227190D02*
X135083333Y-52251000D01*
X135083333Y-52251000D02*
X135035714Y-52274809D01*
X135035714Y-52274809D02*
X134940476Y-52274809D01*
X134940476Y-52274809D02*
X134892857Y-52251000D01*
X134892857Y-52251000D02*
X134869047Y-52227190D01*
X134869047Y-52227190D02*
X134845238Y-52179571D01*
X134845238Y-52179571D02*
X134845238Y-51774809D01*
X134392856Y-51941476D02*
X134392856Y-52274809D01*
X134511904Y-51751000D02*
X134630951Y-52108142D01*
X134630951Y-52108142D02*
X134321428Y-52108142D01*
D11*
X116467857Y-61237800D02*
X116515476Y-61285420D01*
X116515476Y-61285420D02*
X116658333Y-61333039D01*
X116658333Y-61333039D02*
X116753571Y-61333039D01*
X116753571Y-61333039D02*
X116896428Y-61285420D01*
X116896428Y-61285420D02*
X116991666Y-61190181D01*
X116991666Y-61190181D02*
X117039285Y-61094943D01*
X117039285Y-61094943D02*
X117086904Y-60904467D01*
X117086904Y-60904467D02*
X117086904Y-60761610D01*
X117086904Y-60761610D02*
X117039285Y-60571134D01*
X117039285Y-60571134D02*
X116991666Y-60475896D01*
X116991666Y-60475896D02*
X116896428Y-60380658D01*
X116896428Y-60380658D02*
X116753571Y-60333039D01*
X116753571Y-60333039D02*
X116658333Y-60333039D01*
X116658333Y-60333039D02*
X116515476Y-60380658D01*
X116515476Y-60380658D02*
X116467857Y-60428277D01*
X116086904Y-60428277D02*
X116039285Y-60380658D01*
X116039285Y-60380658D02*
X115944047Y-60333039D01*
X115944047Y-60333039D02*
X115705952Y-60333039D01*
X115705952Y-60333039D02*
X115610714Y-60380658D01*
X115610714Y-60380658D02*
X115563095Y-60428277D01*
X115563095Y-60428277D02*
X115515476Y-60523515D01*
X115515476Y-60523515D02*
X115515476Y-60618753D01*
X115515476Y-60618753D02*
X115563095Y-60761610D01*
X115563095Y-60761610D02*
X116134523Y-61333039D01*
X116134523Y-61333039D02*
X115515476Y-61333039D01*
X115134523Y-60428277D02*
X115086904Y-60380658D01*
X115086904Y-60380658D02*
X114991666Y-60333039D01*
X114991666Y-60333039D02*
X114753571Y-60333039D01*
X114753571Y-60333039D02*
X114658333Y-60380658D01*
X114658333Y-60380658D02*
X114610714Y-60428277D01*
X114610714Y-60428277D02*
X114563095Y-60523515D01*
X114563095Y-60523515D02*
X114563095Y-60618753D01*
X114563095Y-60618753D02*
X114610714Y-60761610D01*
X114610714Y-60761610D02*
X115182142Y-61333039D01*
X115182142Y-61333039D02*
X114563095Y-61333039D01*
X127392857Y-61059580D02*
X127440476Y-61107200D01*
X127440476Y-61107200D02*
X127583333Y-61154819D01*
X127583333Y-61154819D02*
X127678571Y-61154819D01*
X127678571Y-61154819D02*
X127821428Y-61107200D01*
X127821428Y-61107200D02*
X127916666Y-61011961D01*
X127916666Y-61011961D02*
X127964285Y-60916723D01*
X127964285Y-60916723D02*
X128011904Y-60726247D01*
X128011904Y-60726247D02*
X128011904Y-60583390D01*
X128011904Y-60583390D02*
X127964285Y-60392914D01*
X127964285Y-60392914D02*
X127916666Y-60297676D01*
X127916666Y-60297676D02*
X127821428Y-60202438D01*
X127821428Y-60202438D02*
X127678571Y-60154819D01*
X127678571Y-60154819D02*
X127583333Y-60154819D01*
X127583333Y-60154819D02*
X127440476Y-60202438D01*
X127440476Y-60202438D02*
X127392857Y-60250057D01*
X127011904Y-60250057D02*
X126964285Y-60202438D01*
X126964285Y-60202438D02*
X126869047Y-60154819D01*
X126869047Y-60154819D02*
X126630952Y-60154819D01*
X126630952Y-60154819D02*
X126535714Y-60202438D01*
X126535714Y-60202438D02*
X126488095Y-60250057D01*
X126488095Y-60250057D02*
X126440476Y-60345295D01*
X126440476Y-60345295D02*
X126440476Y-60440533D01*
X126440476Y-60440533D02*
X126488095Y-60583390D01*
X126488095Y-60583390D02*
X127059523Y-61154819D01*
X127059523Y-61154819D02*
X126440476Y-61154819D01*
X125488095Y-61154819D02*
X126059523Y-61154819D01*
X125773809Y-61154819D02*
X125773809Y-60154819D01*
X125773809Y-60154819D02*
X125869047Y-60297676D01*
X125869047Y-60297676D02*
X125964285Y-60392914D01*
X125964285Y-60392914D02*
X126059523Y-60440533D01*
X152166904Y-65954819D02*
X152166904Y-66764342D01*
X152166904Y-66764342D02*
X152119285Y-66859580D01*
X152119285Y-66859580D02*
X152071666Y-66907200D01*
X152071666Y-66907200D02*
X151976428Y-66954819D01*
X151976428Y-66954819D02*
X151785952Y-66954819D01*
X151785952Y-66954819D02*
X151690714Y-66907200D01*
X151690714Y-66907200D02*
X151643095Y-66859580D01*
X151643095Y-66859580D02*
X151595476Y-66764342D01*
X151595476Y-66764342D02*
X151595476Y-65954819D01*
X150643095Y-65954819D02*
X151119285Y-65954819D01*
X151119285Y-65954819D02*
X151166904Y-66431009D01*
X151166904Y-66431009D02*
X151119285Y-66383390D01*
X151119285Y-66383390D02*
X151024047Y-66335771D01*
X151024047Y-66335771D02*
X150785952Y-66335771D01*
X150785952Y-66335771D02*
X150690714Y-66383390D01*
X150690714Y-66383390D02*
X150643095Y-66431009D01*
X150643095Y-66431009D02*
X150595476Y-66526247D01*
X150595476Y-66526247D02*
X150595476Y-66764342D01*
X150595476Y-66764342D02*
X150643095Y-66859580D01*
X150643095Y-66859580D02*
X150690714Y-66907200D01*
X150690714Y-66907200D02*
X150785952Y-66954819D01*
X150785952Y-66954819D02*
X151024047Y-66954819D01*
X151024047Y-66954819D02*
X151119285Y-66907200D01*
X151119285Y-66907200D02*
X151166904Y-66859580D01*
X165261904Y-73704819D02*
X165261904Y-74514342D01*
X165261904Y-74514342D02*
X165214285Y-74609580D01*
X165214285Y-74609580D02*
X165166666Y-74657200D01*
X165166666Y-74657200D02*
X165071428Y-74704819D01*
X165071428Y-74704819D02*
X164880952Y-74704819D01*
X164880952Y-74704819D02*
X164785714Y-74657200D01*
X164785714Y-74657200D02*
X164738095Y-74609580D01*
X164738095Y-74609580D02*
X164690476Y-74514342D01*
X164690476Y-74514342D02*
X164690476Y-73704819D01*
X164309523Y-73704819D02*
X163690476Y-73704819D01*
X163690476Y-73704819D02*
X164023809Y-74085771D01*
X164023809Y-74085771D02*
X163880952Y-74085771D01*
X163880952Y-74085771D02*
X163785714Y-74133390D01*
X163785714Y-74133390D02*
X163738095Y-74181009D01*
X163738095Y-74181009D02*
X163690476Y-74276247D01*
X163690476Y-74276247D02*
X163690476Y-74514342D01*
X163690476Y-74514342D02*
X163738095Y-74609580D01*
X163738095Y-74609580D02*
X163785714Y-74657200D01*
X163785714Y-74657200D02*
X163880952Y-74704819D01*
X163880952Y-74704819D02*
X164166666Y-74704819D01*
X164166666Y-74704819D02*
X164261904Y-74657200D01*
X164261904Y-74657200D02*
X164309523Y-74609580D01*
X155392857Y-59454819D02*
X155726190Y-58978628D01*
X155964285Y-59454819D02*
X155964285Y-58454819D01*
X155964285Y-58454819D02*
X155583333Y-58454819D01*
X155583333Y-58454819D02*
X155488095Y-58502438D01*
X155488095Y-58502438D02*
X155440476Y-58550057D01*
X155440476Y-58550057D02*
X155392857Y-58645295D01*
X155392857Y-58645295D02*
X155392857Y-58788152D01*
X155392857Y-58788152D02*
X155440476Y-58883390D01*
X155440476Y-58883390D02*
X155488095Y-58931009D01*
X155488095Y-58931009D02*
X155583333Y-58978628D01*
X155583333Y-58978628D02*
X155964285Y-58978628D01*
X155059523Y-58454819D02*
X154440476Y-58454819D01*
X154440476Y-58454819D02*
X154773809Y-58835771D01*
X154773809Y-58835771D02*
X154630952Y-58835771D01*
X154630952Y-58835771D02*
X154535714Y-58883390D01*
X154535714Y-58883390D02*
X154488095Y-58931009D01*
X154488095Y-58931009D02*
X154440476Y-59026247D01*
X154440476Y-59026247D02*
X154440476Y-59264342D01*
X154440476Y-59264342D02*
X154488095Y-59359580D01*
X154488095Y-59359580D02*
X154535714Y-59407200D01*
X154535714Y-59407200D02*
X154630952Y-59454819D01*
X154630952Y-59454819D02*
X154916666Y-59454819D01*
X154916666Y-59454819D02*
X155011904Y-59407200D01*
X155011904Y-59407200D02*
X155059523Y-59359580D01*
X153583333Y-58454819D02*
X153773809Y-58454819D01*
X153773809Y-58454819D02*
X153869047Y-58502438D01*
X153869047Y-58502438D02*
X153916666Y-58550057D01*
X153916666Y-58550057D02*
X154011904Y-58692914D01*
X154011904Y-58692914D02*
X154059523Y-58883390D01*
X154059523Y-58883390D02*
X154059523Y-59264342D01*
X154059523Y-59264342D02*
X154011904Y-59359580D01*
X154011904Y-59359580D02*
X153964285Y-59407200D01*
X153964285Y-59407200D02*
X153869047Y-59454819D01*
X153869047Y-59454819D02*
X153678571Y-59454819D01*
X153678571Y-59454819D02*
X153583333Y-59407200D01*
X153583333Y-59407200D02*
X153535714Y-59359580D01*
X153535714Y-59359580D02*
X153488095Y-59264342D01*
X153488095Y-59264342D02*
X153488095Y-59026247D01*
X153488095Y-59026247D02*
X153535714Y-58931009D01*
X153535714Y-58931009D02*
X153583333Y-58883390D01*
X153583333Y-58883390D02*
X153678571Y-58835771D01*
X153678571Y-58835771D02*
X153869047Y-58835771D01*
X153869047Y-58835771D02*
X153964285Y-58883390D01*
X153964285Y-58883390D02*
X154011904Y-58931009D01*
X154011904Y-58931009D02*
X154059523Y-59026247D01*
X176704166Y-60484819D02*
X177037499Y-60008628D01*
X177275594Y-60484819D02*
X177275594Y-59484819D01*
X177275594Y-59484819D02*
X176894642Y-59484819D01*
X176894642Y-59484819D02*
X176799404Y-59532438D01*
X176799404Y-59532438D02*
X176751785Y-59580057D01*
X176751785Y-59580057D02*
X176704166Y-59675295D01*
X176704166Y-59675295D02*
X176704166Y-59818152D01*
X176704166Y-59818152D02*
X176751785Y-59913390D01*
X176751785Y-59913390D02*
X176799404Y-59961009D01*
X176799404Y-59961009D02*
X176894642Y-60008628D01*
X176894642Y-60008628D02*
X177275594Y-60008628D01*
X176323213Y-59580057D02*
X176275594Y-59532438D01*
X176275594Y-59532438D02*
X176180356Y-59484819D01*
X176180356Y-59484819D02*
X175942261Y-59484819D01*
X175942261Y-59484819D02*
X175847023Y-59532438D01*
X175847023Y-59532438D02*
X175799404Y-59580057D01*
X175799404Y-59580057D02*
X175751785Y-59675295D01*
X175751785Y-59675295D02*
X175751785Y-59770533D01*
X175751785Y-59770533D02*
X175799404Y-59913390D01*
X175799404Y-59913390D02*
X176370832Y-60484819D01*
X176370832Y-60484819D02*
X175751785Y-60484819D01*
D10*
X121676665Y-56012904D02*
X121843332Y-56012904D01*
X121843332Y-56274809D02*
X121843332Y-55774809D01*
X121843332Y-55774809D02*
X121605237Y-55774809D01*
X121248094Y-56012904D02*
X121176666Y-56036714D01*
X121176666Y-56036714D02*
X121152856Y-56060523D01*
X121152856Y-56060523D02*
X121129047Y-56108142D01*
X121129047Y-56108142D02*
X121129047Y-56179571D01*
X121129047Y-56179571D02*
X121152856Y-56227190D01*
X121152856Y-56227190D02*
X121176666Y-56251000D01*
X121176666Y-56251000D02*
X121224285Y-56274809D01*
X121224285Y-56274809D02*
X121414761Y-56274809D01*
X121414761Y-56274809D02*
X121414761Y-55774809D01*
X121414761Y-55774809D02*
X121248094Y-55774809D01*
X121248094Y-55774809D02*
X121200475Y-55798619D01*
X121200475Y-55798619D02*
X121176666Y-55822428D01*
X121176666Y-55822428D02*
X121152856Y-55870047D01*
X121152856Y-55870047D02*
X121152856Y-55917666D01*
X121152856Y-55917666D02*
X121176666Y-55965285D01*
X121176666Y-55965285D02*
X121200475Y-55989095D01*
X121200475Y-55989095D02*
X121248094Y-56012904D01*
X121248094Y-56012904D02*
X121414761Y-56012904D01*
X120652856Y-56274809D02*
X120938570Y-56274809D01*
X120795713Y-56274809D02*
X120795713Y-55774809D01*
X120795713Y-55774809D02*
X120843332Y-55846238D01*
X120843332Y-55846238D02*
X120890951Y-55893857D01*
X120890951Y-55893857D02*
X120938570Y-55917666D01*
D11*
X176704166Y-77094819D02*
X177037499Y-76618628D01*
X177275594Y-77094819D02*
X177275594Y-76094819D01*
X177275594Y-76094819D02*
X176894642Y-76094819D01*
X176894642Y-76094819D02*
X176799404Y-76142438D01*
X176799404Y-76142438D02*
X176751785Y-76190057D01*
X176751785Y-76190057D02*
X176704166Y-76285295D01*
X176704166Y-76285295D02*
X176704166Y-76428152D01*
X176704166Y-76428152D02*
X176751785Y-76523390D01*
X176751785Y-76523390D02*
X176799404Y-76571009D01*
X176799404Y-76571009D02*
X176894642Y-76618628D01*
X176894642Y-76618628D02*
X177275594Y-76618628D01*
X175751785Y-77094819D02*
X176323213Y-77094819D01*
X176037499Y-77094819D02*
X176037499Y-76094819D01*
X176037499Y-76094819D02*
X176132737Y-76237676D01*
X176132737Y-76237676D02*
X176227975Y-76332914D01*
X176227975Y-76332914D02*
X176323213Y-76380533D01*
X143392857Y-55359580D02*
X143440476Y-55407200D01*
X143440476Y-55407200D02*
X143583333Y-55454819D01*
X143583333Y-55454819D02*
X143678571Y-55454819D01*
X143678571Y-55454819D02*
X143821428Y-55407200D01*
X143821428Y-55407200D02*
X143916666Y-55311961D01*
X143916666Y-55311961D02*
X143964285Y-55216723D01*
X143964285Y-55216723D02*
X144011904Y-55026247D01*
X144011904Y-55026247D02*
X144011904Y-54883390D01*
X144011904Y-54883390D02*
X143964285Y-54692914D01*
X143964285Y-54692914D02*
X143916666Y-54597676D01*
X143916666Y-54597676D02*
X143821428Y-54502438D01*
X143821428Y-54502438D02*
X143678571Y-54454819D01*
X143678571Y-54454819D02*
X143583333Y-54454819D01*
X143583333Y-54454819D02*
X143440476Y-54502438D01*
X143440476Y-54502438D02*
X143392857Y-54550057D01*
X143011904Y-54550057D02*
X142964285Y-54502438D01*
X142964285Y-54502438D02*
X142869047Y-54454819D01*
X142869047Y-54454819D02*
X142630952Y-54454819D01*
X142630952Y-54454819D02*
X142535714Y-54502438D01*
X142535714Y-54502438D02*
X142488095Y-54550057D01*
X142488095Y-54550057D02*
X142440476Y-54645295D01*
X142440476Y-54645295D02*
X142440476Y-54740533D01*
X142440476Y-54740533D02*
X142488095Y-54883390D01*
X142488095Y-54883390D02*
X143059523Y-55454819D01*
X143059523Y-55454819D02*
X142440476Y-55454819D01*
X141821428Y-54454819D02*
X141726190Y-54454819D01*
X141726190Y-54454819D02*
X141630952Y-54502438D01*
X141630952Y-54502438D02*
X141583333Y-54550057D01*
X141583333Y-54550057D02*
X141535714Y-54645295D01*
X141535714Y-54645295D02*
X141488095Y-54835771D01*
X141488095Y-54835771D02*
X141488095Y-55073866D01*
X141488095Y-55073866D02*
X141535714Y-55264342D01*
X141535714Y-55264342D02*
X141583333Y-55359580D01*
X141583333Y-55359580D02*
X141630952Y-55407200D01*
X141630952Y-55407200D02*
X141726190Y-55454819D01*
X141726190Y-55454819D02*
X141821428Y-55454819D01*
X141821428Y-55454819D02*
X141916666Y-55407200D01*
X141916666Y-55407200D02*
X141964285Y-55359580D01*
X141964285Y-55359580D02*
X142011904Y-55264342D01*
X142011904Y-55264342D02*
X142059523Y-55073866D01*
X142059523Y-55073866D02*
X142059523Y-54835771D01*
X142059523Y-54835771D02*
X142011904Y-54645295D01*
X142011904Y-54645295D02*
X141964285Y-54550057D01*
X141964285Y-54550057D02*
X141916666Y-54502438D01*
X141916666Y-54502438D02*
X141821428Y-54454819D01*
X119242857Y-61359580D02*
X119290476Y-61407200D01*
X119290476Y-61407200D02*
X119433333Y-61454819D01*
X119433333Y-61454819D02*
X119528571Y-61454819D01*
X119528571Y-61454819D02*
X119671428Y-61407200D01*
X119671428Y-61407200D02*
X119766666Y-61311961D01*
X119766666Y-61311961D02*
X119814285Y-61216723D01*
X119814285Y-61216723D02*
X119861904Y-61026247D01*
X119861904Y-61026247D02*
X119861904Y-60883390D01*
X119861904Y-60883390D02*
X119814285Y-60692914D01*
X119814285Y-60692914D02*
X119766666Y-60597676D01*
X119766666Y-60597676D02*
X119671428Y-60502438D01*
X119671428Y-60502438D02*
X119528571Y-60454819D01*
X119528571Y-60454819D02*
X119433333Y-60454819D01*
X119433333Y-60454819D02*
X119290476Y-60502438D01*
X119290476Y-60502438D02*
X119242857Y-60550057D01*
X118290476Y-61454819D02*
X118861904Y-61454819D01*
X118576190Y-61454819D02*
X118576190Y-60454819D01*
X118576190Y-60454819D02*
X118671428Y-60597676D01*
X118671428Y-60597676D02*
X118766666Y-60692914D01*
X118766666Y-60692914D02*
X118861904Y-60740533D01*
X117957142Y-60454819D02*
X117290476Y-60454819D01*
X117290476Y-60454819D02*
X117719047Y-61454819D01*
X143371667Y-71662800D02*
X143514524Y-71615180D01*
X143514524Y-71615180D02*
X143752619Y-71615180D01*
X143752619Y-71615180D02*
X143847857Y-71662800D01*
X143847857Y-71662800D02*
X143895476Y-71710419D01*
X143895476Y-71710419D02*
X143943095Y-71805657D01*
X143943095Y-71805657D02*
X143943095Y-71900895D01*
X143943095Y-71900895D02*
X143895476Y-71996133D01*
X143895476Y-71996133D02*
X143847857Y-72043752D01*
X143847857Y-72043752D02*
X143752619Y-72091371D01*
X143752619Y-72091371D02*
X143562143Y-72138990D01*
X143562143Y-72138990D02*
X143466905Y-72186609D01*
X143466905Y-72186609D02*
X143419286Y-72234228D01*
X143419286Y-72234228D02*
X143371667Y-72329466D01*
X143371667Y-72329466D02*
X143371667Y-72424704D01*
X143371667Y-72424704D02*
X143419286Y-72519942D01*
X143419286Y-72519942D02*
X143466905Y-72567561D01*
X143466905Y-72567561D02*
X143562143Y-72615180D01*
X143562143Y-72615180D02*
X143800238Y-72615180D01*
X143800238Y-72615180D02*
X143943095Y-72567561D01*
X144276429Y-72615180D02*
X144514524Y-71615180D01*
X144514524Y-71615180D02*
X144705000Y-72329466D01*
X144705000Y-72329466D02*
X144895476Y-71615180D01*
X144895476Y-71615180D02*
X145133572Y-72615180D01*
X145943095Y-72615180D02*
X145752619Y-72615180D01*
X145752619Y-72615180D02*
X145657381Y-72567561D01*
X145657381Y-72567561D02*
X145609762Y-72519942D01*
X145609762Y-72519942D02*
X145514524Y-72377085D01*
X145514524Y-72377085D02*
X145466905Y-72186609D01*
X145466905Y-72186609D02*
X145466905Y-71805657D01*
X145466905Y-71805657D02*
X145514524Y-71710419D01*
X145514524Y-71710419D02*
X145562143Y-71662800D01*
X145562143Y-71662800D02*
X145657381Y-71615180D01*
X145657381Y-71615180D02*
X145847857Y-71615180D01*
X145847857Y-71615180D02*
X145943095Y-71662800D01*
X145943095Y-71662800D02*
X145990714Y-71710419D01*
X145990714Y-71710419D02*
X146038333Y-71805657D01*
X146038333Y-71805657D02*
X146038333Y-72043752D01*
X146038333Y-72043752D02*
X145990714Y-72138990D01*
X145990714Y-72138990D02*
X145943095Y-72186609D01*
X145943095Y-72186609D02*
X145847857Y-72234228D01*
X145847857Y-72234228D02*
X145657381Y-72234228D01*
X145657381Y-72234228D02*
X145562143Y-72186609D01*
X145562143Y-72186609D02*
X145514524Y-72138990D01*
X145514524Y-72138990D02*
X145466905Y-72043752D01*
X145342857Y-61324819D02*
X145676190Y-60848628D01*
X145914285Y-61324819D02*
X145914285Y-60324819D01*
X145914285Y-60324819D02*
X145533333Y-60324819D01*
X145533333Y-60324819D02*
X145438095Y-60372438D01*
X145438095Y-60372438D02*
X145390476Y-60420057D01*
X145390476Y-60420057D02*
X145342857Y-60515295D01*
X145342857Y-60515295D02*
X145342857Y-60658152D01*
X145342857Y-60658152D02*
X145390476Y-60753390D01*
X145390476Y-60753390D02*
X145438095Y-60801009D01*
X145438095Y-60801009D02*
X145533333Y-60848628D01*
X145533333Y-60848628D02*
X145914285Y-60848628D01*
X145009523Y-60324819D02*
X144390476Y-60324819D01*
X144390476Y-60324819D02*
X144723809Y-60705771D01*
X144723809Y-60705771D02*
X144580952Y-60705771D01*
X144580952Y-60705771D02*
X144485714Y-60753390D01*
X144485714Y-60753390D02*
X144438095Y-60801009D01*
X144438095Y-60801009D02*
X144390476Y-60896247D01*
X144390476Y-60896247D02*
X144390476Y-61134342D01*
X144390476Y-61134342D02*
X144438095Y-61229580D01*
X144438095Y-61229580D02*
X144485714Y-61277200D01*
X144485714Y-61277200D02*
X144580952Y-61324819D01*
X144580952Y-61324819D02*
X144866666Y-61324819D01*
X144866666Y-61324819D02*
X144961904Y-61277200D01*
X144961904Y-61277200D02*
X145009523Y-61229580D01*
X143485714Y-60324819D02*
X143961904Y-60324819D01*
X143961904Y-60324819D02*
X144009523Y-60801009D01*
X144009523Y-60801009D02*
X143961904Y-60753390D01*
X143961904Y-60753390D02*
X143866666Y-60705771D01*
X143866666Y-60705771D02*
X143628571Y-60705771D01*
X143628571Y-60705771D02*
X143533333Y-60753390D01*
X143533333Y-60753390D02*
X143485714Y-60801009D01*
X143485714Y-60801009D02*
X143438095Y-60896247D01*
X143438095Y-60896247D02*
X143438095Y-61134342D01*
X143438095Y-61134342D02*
X143485714Y-61229580D01*
X143485714Y-61229580D02*
X143533333Y-61277200D01*
X143533333Y-61277200D02*
X143628571Y-61324819D01*
X143628571Y-61324819D02*
X143866666Y-61324819D01*
X143866666Y-61324819D02*
X143961904Y-61277200D01*
X143961904Y-61277200D02*
X144009523Y-61229580D01*
%TO.C,SW4*%
D12*
X158906001Y-98519899D02*
G75*
G02*
X158144001Y-98519899I-381000J0D01*
G01*
X158144001Y-98519899D02*
G75*
G02*
X158906001Y-98519899I381000J0D01*
G01*
%TO.C,D1*%
D13*
X155850000Y-64400000D02*
X157650000Y-64400000D01*
%TO.C,C24*%
D14*
X161825000Y-60875000D02*
X164825000Y-60875000D01*
X164825000Y-62875000D02*
X161825000Y-62875000D01*
X161825000Y-62875000D02*
G75*
G02*
X161825000Y-60875000I1122254J1000000D01*
G01*
X164825000Y-60875000D02*
G75*
G02*
X164825000Y-62875000I-1122254J-1000000D01*
G01*
%TO.C,D2*%
D13*
X160150000Y-68800000D02*
X158350000Y-68800000D01*
%TO.C,U4*%
D14*
X132840000Y-52640000D02*
X132840000Y-53900000D01*
X132840000Y-59460000D02*
X132840000Y-58200000D01*
X136600000Y-52640000D02*
X132840000Y-52640000D01*
X136600000Y-59460000D02*
X132840000Y-59460000D01*
X137880000Y-52740000D02*
X138120000Y-52410000D01*
X137640000Y-52410000D01*
X137880000Y-52740000D01*
G36*
X137880000Y-52740000D02*
G01*
X137640000Y-52410000D01*
X138120000Y-52410000D01*
X137880000Y-52740000D01*
G37*
%TO.C,C5*%
X147117000Y-58311252D02*
X147117000Y-57788748D01*
X148587000Y-58311252D02*
X148587000Y-57788748D01*
%TO.C,C22*%
X114750000Y-59550000D02*
X114750000Y-56550000D01*
X116750000Y-56550000D02*
X116750000Y-59550000D01*
X114750000Y-56550000D02*
G75*
G02*
X116750000Y-56550000I1000000J-1122254D01*
G01*
X116750000Y-59550000D02*
G75*
G02*
X114750000Y-59550000I-1000000J1122254D01*
G01*
%TO.C,C21*%
X125750000Y-59600000D02*
X125750000Y-56600000D01*
X127750000Y-56600000D02*
X127750000Y-59600000D01*
X125750000Y-56600000D02*
G75*
G02*
X127750000Y-56600000I1000000J-1122254D01*
G01*
X127750000Y-59600000D02*
G75*
G02*
X125750000Y-59600000I-1000000J1122254D01*
G01*
%TO.C,R39*%
X147950000Y-91887500D02*
X149950000Y-91887500D01*
X147950000Y-95287500D02*
X147950000Y-91887500D01*
X149950000Y-91887500D02*
X149950000Y-95287500D01*
X149950000Y-95287500D02*
X147950000Y-95287500D01*
%TO.C,C39*%
X139515000Y-58311252D02*
X139515000Y-57788748D01*
X140985000Y-58311252D02*
X140985000Y-57788748D01*
%TO.C,U5*%
D15*
X152935000Y-60455000D02*
X149875000Y-60455000D01*
X152935000Y-65355000D02*
X149875000Y-65355000D01*
D16*
X155965000Y-61000000D02*
G75*
G02*
X155765000Y-61000000I-100000J0D01*
G01*
X155765000Y-61000000D02*
G75*
G02*
X155965000Y-61000000I100000J0D01*
G01*
%TO.C,J9*%
D17*
X131150000Y-61250000D02*
X131150000Y-68250000D01*
X131150000Y-68250000D02*
X131950000Y-68250000D01*
X131950000Y-61250000D02*
X131150000Y-61250000D01*
X131950000Y-61250000D02*
X131950000Y-68250000D01*
X131950000Y-68250000D02*
X138150000Y-68250000D01*
X138150000Y-61250000D02*
X131950000Y-61250000D01*
X138150000Y-68250000D02*
X138150000Y-61250000D01*
%TO.C,J3*%
X176737500Y-63930000D02*
X178537500Y-63930000D01*
X176737500Y-72570000D02*
X178537500Y-72570000D01*
%TO.C,C9*%
D14*
X144515000Y-58311252D02*
X144515000Y-57788748D01*
X145985000Y-58311252D02*
X145985000Y-57788748D01*
%TO.C,U3*%
X162665000Y-63135000D02*
X162665000Y-63190000D01*
X162665000Y-73200000D02*
X162665000Y-73255000D01*
X162665000Y-73255000D02*
X166785000Y-73255000D01*
X166785000Y-63135000D02*
X162665000Y-63135000D01*
X166785000Y-63190000D02*
X166785000Y-63135000D01*
X166785000Y-73255000D02*
X166785000Y-73200000D01*
X167325000Y-63185000D02*
X167565000Y-62855000D01*
X167085000Y-62855000D01*
X167325000Y-63185000D01*
G36*
X167325000Y-63185000D02*
G01*
X167085000Y-62855000D01*
X167565000Y-62855000D01*
X167325000Y-63185000D01*
G37*
%TO.C,R36*%
X156180000Y-60000000D02*
X156180000Y-62000000D01*
X158320000Y-62000000D02*
X158320000Y-60000000D01*
%TO.C,D3*%
D13*
X157650000Y-73800000D02*
X155850000Y-73800000D01*
%TO.C,C13*%
D14*
X156515000Y-56761252D02*
X156515000Y-56238748D01*
X157985000Y-56761252D02*
X157985000Y-56238748D01*
%TO.C,C3*%
X123565000Y-57688748D02*
X123565000Y-58211252D01*
X125035000Y-57688748D02*
X125035000Y-58211252D01*
%TO.C,R2*%
X177264564Y-60980000D02*
X175810436Y-60980000D01*
X177264564Y-62800000D02*
X175810436Y-62800000D01*
%TO.C,D4*%
D13*
X158350000Y-69400000D02*
X160150000Y-69400000D01*
%TO.C,R34*%
D14*
X145500000Y-92500000D02*
X147500000Y-92500000D01*
X145500000Y-95900000D02*
X145500000Y-92500000D01*
X147500000Y-92500000D02*
X147500000Y-95900000D01*
X147500000Y-95900000D02*
X145500000Y-95900000D01*
%TO.C,L1*%
X146190000Y-62662878D02*
X146190000Y-63462122D01*
X147310000Y-62662878D02*
X147310000Y-63462122D01*
%TO.C,FB1*%
X119350000Y-56400000D02*
X123150000Y-56400000D01*
X119350000Y-58400000D02*
X119350000Y-56400000D01*
X123150000Y-56400000D02*
X123150000Y-58400000D01*
X123150000Y-58400000D02*
X119350000Y-58400000D01*
%TO.C,C4*%
X149515000Y-58311252D02*
X149515000Y-57788748D01*
X150985000Y-58311252D02*
X150985000Y-57788748D01*
%TO.C,R1*%
X177264564Y-73730000D02*
X175810436Y-73730000D01*
X177264564Y-75550000D02*
X175810436Y-75550000D01*
%TO.C,C20*%
X141750000Y-59550000D02*
X141750000Y-56550000D01*
X143750000Y-56550000D02*
X143750000Y-59550000D01*
X141750000Y-56550000D02*
G75*
G02*
X143750000Y-56550000I1000000J-1122254D01*
G01*
X143750000Y-59550000D02*
G75*
G02*
X141750000Y-59550000I-1000000J1122254D01*
G01*
%TO.C,C17*%
X117175000Y-59671780D02*
X117175000Y-56671780D01*
X119175000Y-56671780D02*
X119175000Y-59671780D01*
X117175000Y-56671780D02*
G75*
G02*
X119175000Y-56671780I1000000J-1122254D01*
G01*
X119175000Y-59671780D02*
G75*
G02*
X117175000Y-59671780I-1000000J1122254D01*
G01*
%TO.C,C38*%
X128515000Y-57788748D02*
X128515000Y-58311252D01*
X129985000Y-57788748D02*
X129985000Y-58311252D01*
%TO.C,SW6*%
X141625000Y-67120000D02*
X148025000Y-67120000D01*
X141625000Y-68320000D02*
X141625000Y-67120000D01*
X141625000Y-71120000D02*
X141625000Y-69920000D01*
X148025000Y-67120000D02*
X148025000Y-68320000D01*
X148025000Y-69920000D02*
X148025000Y-71120000D01*
X148025000Y-71120000D02*
X141625000Y-71120000D01*
%TO.C,C36*%
X139015000Y-61868748D02*
X139015000Y-62391252D01*
X140485000Y-61868748D02*
X140485000Y-62391252D01*
%TO.C,C37*%
X144015000Y-64863748D02*
X144015000Y-65386252D01*
X145485000Y-64863748D02*
X145485000Y-65386252D01*
%TO.C,R35*%
X141180000Y-61675000D02*
X141180000Y-63675000D01*
X143320000Y-63675000D02*
X143320000Y-61675000D01*
%TO.C,C34*%
X159015000Y-61761252D02*
X159015000Y-61238748D01*
X160485000Y-61761252D02*
X160485000Y-61238748D01*
%TD*%
%LPC*%
D18*
%TO.C,T1*%
X131219581Y-119480000D03*
D19*
X131219581Y-132180000D03*
X141219581Y-132180000D03*
X141219581Y-119480000D03*
%TD*%
D20*
%TO.C,J4*%
X93650000Y-118125000D03*
%TD*%
%TO.C,J10*%
X93025000Y-132650000D03*
%TD*%
%TO.C,J5*%
X91125000Y-81475000D03*
%TD*%
D21*
%TO.C,J2*%
X172000000Y-82860000D03*
D22*
X172000000Y-85400000D03*
X172000000Y-87940000D03*
X172000000Y-90480000D03*
%TD*%
D18*
%TO.C,DS1*%
X132510000Y-47800000D03*
D19*
X135050000Y-47800000D03*
X137590000Y-47800000D03*
X140130000Y-47800000D03*
%TD*%
D20*
%TO.C,J6*%
X91125000Y-62800000D03*
%TD*%
D23*
%TO.C,J1*%
X94675000Y-92625000D03*
X101675000Y-92625000D03*
%TD*%
D24*
%TO.C,SW4*%
X166025001Y-102456901D03*
X166025001Y-113456899D03*
D25*
X158525001Y-105456900D03*
X158525001Y-110456900D03*
X158525001Y-107956900D03*
X173025000Y-105456900D03*
X173025000Y-110456900D03*
%TD*%
D26*
%TO.C,TP9*%
X109575000Y-81825000D03*
%TD*%
D27*
%TO.C,D1*%
X156750000Y-65200000D03*
X156750000Y-68000000D03*
%TD*%
D28*
%TO.C,C24*%
X162375000Y-61875000D03*
X164275000Y-61875000D03*
%TD*%
D29*
%TO.C,D2*%
X159250000Y-68000000D03*
X159250000Y-65200000D03*
%TD*%
D30*
%TO.C,U4*%
X137900000Y-53750000D03*
X137900000Y-56050000D03*
D31*
X131600000Y-56050000D03*
D30*
X137900000Y-58350000D03*
%TD*%
D26*
%TO.C,TP17*%
X151925000Y-55600000D03*
%TD*%
%TO.C,TP10*%
X111790000Y-82500000D03*
%TD*%
D32*
%TO.C,C5*%
X147852000Y-59000000D03*
X147852000Y-57100000D03*
%TD*%
D33*
%TO.C,C22*%
X115750000Y-57100000D03*
X115750000Y-59000000D03*
%TD*%
D32*
%TO.C,C21*%
X126750000Y-59050000D03*
X126750000Y-57150000D03*
%TD*%
D34*
%TO.C,R39*%
X148950000Y-92675000D03*
X148950000Y-94500000D03*
%TD*%
D32*
%TO.C,C39*%
X140250000Y-59000000D03*
X140250000Y-57100000D03*
%TD*%
D35*
%TO.C,U5*%
X154060000Y-61000000D03*
X154060000Y-62270000D03*
X154060000Y-63540000D03*
X154060000Y-64810000D03*
X148750000Y-64810000D03*
X148750000Y-63540000D03*
X148750000Y-62270000D03*
X148750000Y-61000000D03*
D36*
X151405000Y-62905000D03*
%TD*%
D26*
%TO.C,TP23*%
X152000000Y-59000000D03*
%TD*%
D37*
%TO.C,J9*%
X134750000Y-66500000D03*
D38*
X134750000Y-63000000D03*
%TD*%
D39*
%TO.C,J3*%
X175982500Y-65360000D03*
X175982500Y-71140000D03*
D40*
X174877500Y-67000000D03*
X174877500Y-68000000D03*
X174877500Y-68500000D03*
X174877500Y-69500000D03*
X174877500Y-70000000D03*
X174877500Y-69000000D03*
X174877500Y-67500000D03*
X174877500Y-66500000D03*
D41*
X174877500Y-65025000D03*
X174877500Y-71475000D03*
D42*
X179632500Y-63932000D03*
D43*
X175452500Y-63932000D03*
X175452500Y-72568000D03*
D42*
X179632500Y-72568000D03*
D41*
X174877500Y-65800000D03*
X174877500Y-70700000D03*
%TD*%
D32*
%TO.C,C9*%
X145250000Y-59000000D03*
X145250000Y-57100000D03*
%TD*%
D44*
%TO.C,U3*%
X167200000Y-63750000D03*
X167200000Y-65020000D03*
X167200000Y-66290000D03*
X167200000Y-67560000D03*
X167200000Y-68830000D03*
X167200000Y-70100000D03*
X167200000Y-71370000D03*
X167200000Y-72640000D03*
X162250000Y-72640000D03*
X162250000Y-71370000D03*
X162250000Y-70100000D03*
X162250000Y-68830000D03*
X162250000Y-67560000D03*
X162250000Y-66290000D03*
X162250000Y-65020000D03*
X162250000Y-63750000D03*
%TD*%
D26*
%TO.C,TP22*%
X166950000Y-59550000D03*
%TD*%
D45*
%TO.C,R36*%
X157250000Y-62500000D03*
X157250000Y-59500000D03*
%TD*%
D29*
%TO.C,D3*%
X156750000Y-73000000D03*
X156750000Y-70200000D03*
%TD*%
D32*
%TO.C,C13*%
X157250000Y-57450000D03*
X157250000Y-55550000D03*
%TD*%
D33*
%TO.C,C3*%
X124300000Y-57000000D03*
X124300000Y-58900000D03*
%TD*%
D46*
%TO.C,R2*%
X178000000Y-61890000D03*
X175075000Y-61890000D03*
%TD*%
D26*
%TO.C,TP24*%
X140800000Y-64600000D03*
%TD*%
%TO.C,TP26*%
X158600000Y-94600000D03*
%TD*%
D27*
%TO.C,D4*%
X159250000Y-70200000D03*
X159250000Y-73000000D03*
%TD*%
D34*
%TO.C,R34*%
X146500000Y-93287500D03*
X146500000Y-95112500D03*
%TD*%
D47*
%TO.C,L1*%
X146750000Y-62000000D03*
X146750000Y-64125000D03*
%TD*%
D48*
%TO.C,FB1*%
X120187500Y-57400000D03*
X122312500Y-57400000D03*
%TD*%
D32*
%TO.C,C4*%
X150250000Y-59000000D03*
X150250000Y-57100000D03*
%TD*%
D46*
%TO.C,R1*%
X178000000Y-74640000D03*
X175075000Y-74640000D03*
%TD*%
D32*
%TO.C,C20*%
X142750000Y-59000000D03*
X142750000Y-57100000D03*
%TD*%
D33*
%TO.C,C17*%
X118175000Y-57221780D03*
X118175000Y-59121780D03*
%TD*%
D26*
%TO.C,TP27*%
X177600000Y-98725000D03*
%TD*%
%TO.C,TP15*%
X115800000Y-55600000D03*
%TD*%
D33*
%TO.C,C38*%
X129250000Y-57100000D03*
X129250000Y-59000000D03*
%TD*%
D49*
%TO.C,SW6*%
X140950000Y-69120000D03*
X148700000Y-69120000D03*
%TD*%
D33*
%TO.C,C36*%
X139750000Y-61180000D03*
X139750000Y-63080000D03*
%TD*%
%TO.C,C37*%
X144750000Y-64175000D03*
X144750000Y-66075000D03*
%TD*%
D45*
%TO.C,R35*%
X142250000Y-64175000D03*
X142250000Y-61175000D03*
%TD*%
D32*
%TO.C,C34*%
X159750000Y-62450000D03*
X159750000Y-60550000D03*
%TD*%
%LPD*%
M02*
