%TF.GenerationSoftware,KiCad,Pcbnew,10.0.5-1.fc43*%
%TF.CreationDate,2026-07-29T15:29:54+07:00*%
%TF.ProjectId,Energy_Meter,456e6572-6779-45f4-9d65-7465722e6b69,rev?*%
%TF.SameCoordinates,Original*%
%TF.FileFunction,Soldermask,Top*%
%TF.FilePolarity,Negative*%
%FSLAX46Y46*%
G04 Gerber Fmt 4.6, Leading zero omitted, Abs format (unit mm)*
G04 Created by KiCad (PCBNEW 10.0.5-1.fc43) date 2026-07-29 15:29:54*
%MOMM*%
%LPD*%
G01*
G04 APERTURE LIST*
G04 Aperture macros list*
%AMRoundRect*
0 Rectangle with rounded corners*
0 $1 Rounding radius*
0 $2 $3 $4 $5 $6 $7 $8 $9 X,Y pos of 4 corners*
0 Add a 4 corners polygon primitive as box body*
4,1,4,$2,$3,$4,$5,$6,$7,$8,$9,$2,$3,0*
0 Add four circle primitives for the rounded corners*
1,1,$1+$1,$2,$3*
1,1,$1+$1,$4,$5*
1,1,$1+$1,$6,$7*
1,1,$1+$1,$8,$9*
0 Add four rect primitives between the rounded corners*
20,1,$1+$1,$2,$3,$4,$5,0*
20,1,$1+$1,$4,$5,$6,$7,0*
20,1,$1+$1,$6,$7,$8,$9,0*
20,1,$1+$1,$8,$9,$2,$3,0*%
G04 Aperture macros list end*
%ADD10RoundRect,0.250000X-0.262500X-0.450000X0.262500X-0.450000X0.262500X0.450000X-0.262500X0.450000X0*%
%ADD11RoundRect,0.250000X0.475000X-0.250000X0.475000X0.250000X-0.475000X0.250000X-0.475000X-0.250000X0*%
%ADD12C,0.500000*%
%ADD13RoundRect,0.102000X-0.754000X-0.754000X0.754000X-0.754000X0.754000X0.754000X-0.754000X0.754000X0*%
%ADD14C,1.712000*%
%ADD15R,1.200000X1.600000*%
%ADD16RoundRect,0.075000X-0.662500X-0.075000X0.662500X-0.075000X0.662500X0.075000X-0.662500X0.075000X0*%
%ADD17RoundRect,0.075000X-0.075000X-0.662500X0.075000X-0.662500X0.075000X0.662500X-0.075000X0.662500X0*%
%ADD18RoundRect,0.075000X0.650000X0.075000X-0.650000X0.075000X-0.650000X-0.075000X0.650000X-0.075000X0*%
%ADD19RoundRect,0.102000X-0.600000X-0.710000X0.600000X-0.710000X0.600000X0.710000X-0.600000X0.710000X0*%
%ADD20RoundRect,0.469500X-1.357500X0.367500X-1.357500X-0.367500X1.357500X-0.367500X1.357500X0.367500X0*%
%ADD21RoundRect,0.250000X-0.362500X-1.425000X0.362500X-1.425000X0.362500X1.425000X-0.362500X1.425000X0*%
%ADD22RoundRect,0.250000X0.250000X0.475000X-0.250000X0.475000X-0.250000X-0.475000X0.250000X-0.475000X0*%
%ADD23RoundRect,0.250000X-0.250000X-0.475000X0.250000X-0.475000X0.250000X0.475000X-0.250000X0.475000X0*%
%ADD24RoundRect,0.102000X-0.480000X-0.690000X0.480000X-0.690000X0.480000X0.690000X-0.480000X0.690000X0*%
%ADD25RoundRect,0.250000X-0.475000X0.250000X-0.475000X-0.250000X0.475000X-0.250000X0.475000X0.250000X0*%
%ADD26C,8.600000*%
%ADD27RoundRect,0.102000X0.480000X0.690000X-0.480000X0.690000X-0.480000X-0.690000X0.480000X-0.690000X0*%
%ADD28RoundRect,0.102000X-0.625000X-0.750000X0.625000X-0.750000X0.625000X0.750000X-0.625000X0.750000X0*%
%ADD29RoundRect,0.250000X-0.400000X0.550000X-0.400000X-0.550000X0.400000X-0.550000X0.400000X0.550000X0*%
%ADD30R,1.600000X1.200000*%
%ADD31R,1.700000X1.700000*%
%ADD32C,1.700000*%
%ADD33RoundRect,0.102000X0.580000X0.735000X-0.580000X0.735000X-0.580000X-0.735000X0.580000X-0.735000X0*%
%ADD34RoundRect,0.200000X0.200000X0.275000X-0.200000X0.275000X-0.200000X-0.275000X0.200000X-0.275000X0*%
%ADD35R,1.000000X1.250000*%
%ADD36RoundRect,0.150000X-0.150000X-0.200000X0.150000X-0.200000X0.150000X0.200000X-0.150000X0.200000X0*%
%ADD37RoundRect,0.250000X-0.450000X0.262500X-0.450000X-0.262500X0.450000X-0.262500X0.450000X0.262500X0*%
%ADD38RoundRect,0.102000X-0.865000X0.485000X-0.865000X-0.485000X0.865000X-0.485000X0.865000X0.485000X0*%
%ADD39RoundRect,0.102000X-0.580000X-0.735000X0.580000X-0.735000X0.580000X0.735000X-0.580000X0.735000X0*%
%ADD40RoundRect,0.250000X0.262500X0.450000X-0.262500X0.450000X-0.262500X-0.450000X0.262500X-0.450000X0*%
%ADD41R,1.250000X1.000000*%
%ADD42R,2.200000X2.800000*%
%ADD43C,1.800000*%
%ADD44R,2.800000X2.800000*%
%ADD45C,3.556000*%
%ADD46C,1.600200*%
%ADD47RoundRect,0.250000X0.362500X1.425000X-0.362500X1.425000X-0.362500X-1.425000X0.362500X-1.425000X0*%
%ADD48R,2.500000X2.500000*%
%ADD49C,2.500000*%
%ADD50C,0.650000*%
%ADD51O,1.600000X1.000000*%
%ADD52O,2.100000X1.000000*%
%ADD53C,0.350000*%
%ADD54O,1.200000X0.600000*%
%ADD55O,1.700000X0.600000*%
G04 APERTURE END LIST*
D10*
%TO.C,R46*%
X155775000Y-92225000D03*
X157600000Y-92225000D03*
%TD*%
D11*
%TO.C,C26*%
X95991581Y-73250000D03*
X95991581Y-71350000D03*
%TD*%
D12*
%TO.C,TP19*%
X170400000Y-76550000D03*
%TD*%
D13*
%TO.C,T1*%
X131219581Y-119480000D03*
D14*
X131219581Y-132180000D03*
X141219581Y-132180000D03*
X141219581Y-119480000D03*
%TD*%
D15*
%TO.C,R19*%
X135608000Y-86691900D03*
X132608000Y-86691900D03*
%TD*%
D12*
%TO.C,TP1*%
X153949581Y-125980000D03*
%TD*%
D15*
%TO.C,R23*%
X154025001Y-110406900D03*
X151025001Y-110406900D03*
%TD*%
D12*
%TO.C,TP6*%
X87450000Y-102475000D03*
%TD*%
D16*
%TO.C,U1*%
X142790000Y-90060000D03*
X142790000Y-90560000D03*
X142790000Y-91060000D03*
X142790000Y-91560000D03*
X142790000Y-92060000D03*
X142790000Y-92560000D03*
X142790000Y-93060000D03*
X142790000Y-93560000D03*
X142790000Y-94060000D03*
X142790000Y-94560000D03*
X142790000Y-95060000D03*
X142790000Y-95560000D03*
D17*
X144202500Y-96972500D03*
X144702500Y-96972500D03*
X145202500Y-96972500D03*
X145702500Y-96972500D03*
X146202500Y-96972500D03*
X146702500Y-96972500D03*
X147202500Y-96972500D03*
X147702500Y-96972500D03*
X148202500Y-96972500D03*
X148702500Y-96972500D03*
X149202500Y-96972500D03*
X149702500Y-96972500D03*
D16*
X151115000Y-95560000D03*
X151115000Y-95060000D03*
X151115000Y-94560000D03*
X151115000Y-94060000D03*
X151115000Y-93560000D03*
X151115000Y-93060000D03*
X151115000Y-92560000D03*
X151115000Y-92060000D03*
X151115000Y-91560000D03*
X151115000Y-91060000D03*
X151115000Y-90560000D03*
X151115000Y-90060000D03*
D17*
X149702500Y-88647500D03*
X149202500Y-88647500D03*
X148702500Y-88647500D03*
X148202500Y-88647500D03*
X147702500Y-88647500D03*
X147202500Y-88647500D03*
X146702500Y-88647500D03*
X146202500Y-88647500D03*
X145702500Y-88647500D03*
X145202500Y-88647500D03*
X144702500Y-88647500D03*
X144202500Y-88647500D03*
%TD*%
D18*
%TO.C,U6*%
X103291581Y-73300000D03*
X103291581Y-72800000D03*
X103291581Y-72300000D03*
X103291581Y-71800000D03*
X103291581Y-71300000D03*
X98991581Y-71300000D03*
X98991581Y-71800000D03*
X98991581Y-72300000D03*
X98991581Y-72800000D03*
X98991581Y-73300000D03*
%TD*%
D12*
%TO.C,TP20*%
X171020000Y-78520000D03*
%TD*%
D11*
%TO.C,C23*%
X98600000Y-69375000D03*
X98600000Y-67475000D03*
%TD*%
D12*
%TO.C,TP25*%
X145702500Y-107175000D03*
%TD*%
D19*
%TO.C,R20*%
X140505000Y-45200000D03*
X142175000Y-45200000D03*
%TD*%
D20*
%TO.C,R15_Shunt1*%
X89750000Y-69375000D03*
X89750000Y-75225000D03*
%TD*%
D21*
%TO.C,R32*%
X94512500Y-100225000D03*
X100437500Y-100225000D03*
%TD*%
D12*
%TO.C,TP3*%
X149290000Y-100420000D03*
%TD*%
%TO.C,TP18*%
X147075000Y-105325000D03*
%TD*%
D22*
%TO.C,C15*%
X141330000Y-88570000D03*
X139430000Y-88570000D03*
%TD*%
%TO.C,C27*%
X153825001Y-112956900D03*
X151925001Y-112956900D03*
%TD*%
D23*
%TO.C,C28*%
X132600000Y-45075000D03*
X134500000Y-45075000D03*
%TD*%
D24*
%TO.C,R16*%
X106694000Y-69975000D03*
X108650000Y-69975000D03*
%TD*%
D22*
%TO.C,C10*%
X153475001Y-102456900D03*
X151575001Y-102456900D03*
%TD*%
D25*
%TO.C,C12*%
X151400000Y-97700000D03*
X151400000Y-99600000D03*
%TD*%
D26*
%TO.C,J4*%
X93650000Y-118125000D03*
%TD*%
D12*
%TO.C,TP2*%
X146889581Y-118220000D03*
%TD*%
%TO.C,TP5*%
X89875000Y-96825000D03*
%TD*%
D27*
%TO.C,R18*%
X108650000Y-73975000D03*
X106694000Y-73975000D03*
%TD*%
D12*
%TO.C,TP4*%
X109443750Y-95100000D03*
%TD*%
D23*
%TO.C,C8*%
X142500000Y-86250000D03*
X144400000Y-86250000D03*
%TD*%
D15*
%TO.C,R31*%
X151450000Y-118180000D03*
X148450000Y-118180000D03*
%TD*%
D28*
%TO.C,R13*%
X111525000Y-133025000D03*
X114975000Y-133025000D03*
%TD*%
%TO.C,R10*%
X111425000Y-117775000D03*
X114875000Y-117775000D03*
%TD*%
D26*
%TO.C,J10*%
X93025000Y-132650000D03*
%TD*%
D29*
%TO.C,X1*%
X138050000Y-92980000D03*
X138050000Y-96280000D03*
X140050000Y-96280000D03*
X140050000Y-92980000D03*
%TD*%
D12*
%TO.C,TP13*%
X125579581Y-118940000D03*
%TD*%
D30*
%TO.C,R42*%
X167180000Y-91785000D03*
X167180000Y-94785000D03*
%TD*%
%TO.C,R37*%
X156025001Y-115855000D03*
X156025001Y-112855000D03*
%TD*%
D26*
%TO.C,J5*%
X91125000Y-81475000D03*
%TD*%
D31*
%TO.C,J2*%
X172000000Y-82860000D03*
D32*
X172000000Y-85400000D03*
X172000000Y-87940000D03*
X172000000Y-90480000D03*
%TD*%
D15*
%TO.C,R21*%
X142400000Y-83800000D03*
X145400000Y-83800000D03*
%TD*%
D28*
%TO.C,R11*%
X120500000Y-117600000D03*
X123950000Y-117600000D03*
%TD*%
D33*
%TO.C,C2*%
X140110000Y-98670000D03*
X138360000Y-98670000D03*
%TD*%
D12*
%TO.C,TP14*%
X112600000Y-48625000D03*
%TD*%
D30*
%TO.C,R38*%
X175350000Y-102350000D03*
X175350000Y-105350000D03*
%TD*%
D34*
%TO.C,R3*%
X149590000Y-98790000D03*
X147940000Y-98790000D03*
%TD*%
D35*
%TO.C,SW8*%
X129170000Y-92835000D03*
X129170000Y-85085000D03*
%TD*%
D25*
%TO.C,C43*%
X87250000Y-99007081D03*
X87250000Y-100907081D03*
%TD*%
D36*
%TO.C,D5*%
X153569581Y-128280000D03*
X152169581Y-128280000D03*
%TD*%
D30*
%TO.C,R30*%
X89675000Y-99025000D03*
X89675000Y-102025000D03*
%TD*%
D13*
%TO.C,DS1*%
X132510000Y-47800000D03*
D14*
X135050000Y-47800000D03*
X137590000Y-47800000D03*
X140130000Y-47800000D03*
%TD*%
D15*
%TO.C,R25*%
X164605000Y-94555000D03*
X161605000Y-94555000D03*
%TD*%
D28*
%TO.C,R12*%
X100225000Y-133200000D03*
X103675000Y-133200000D03*
%TD*%
D25*
%TO.C,C16*%
X142640000Y-97520000D03*
X142640000Y-99420000D03*
%TD*%
D37*
%TO.C,R29*%
X147500000Y-83850000D03*
X147500000Y-85675000D03*
%TD*%
D28*
%TO.C,R5*%
X100950000Y-117775000D03*
X104400000Y-117775000D03*
%TD*%
D38*
%TO.C,R9*%
X147500000Y-125200000D03*
X147500000Y-128160000D03*
%TD*%
D39*
%TO.C,C1*%
X136190000Y-90580000D03*
X137940000Y-90580000D03*
%TD*%
D25*
%TO.C,C25*%
X132670000Y-89135000D03*
X132670000Y-91035000D03*
%TD*%
D10*
%TO.C,R6*%
X94166581Y-75300000D03*
X95991581Y-75300000D03*
%TD*%
D25*
%TO.C,C14*%
X153650000Y-97700000D03*
X153650000Y-99600000D03*
%TD*%
D28*
%TO.C,R14*%
X120350000Y-133200000D03*
X123800000Y-133200000D03*
%TD*%
D12*
%TO.C,TP8*%
X92500000Y-69375000D03*
%TD*%
D15*
%TO.C,R22*%
X151025001Y-105355000D03*
X154025001Y-105355000D03*
%TD*%
D12*
%TO.C,TP21*%
X103090000Y-66465000D03*
%TD*%
D21*
%TO.C,R8*%
X147407081Y-131880000D03*
X153332081Y-131880000D03*
%TD*%
D30*
%TO.C,R27*%
X92175000Y-102025000D03*
X92175000Y-99025000D03*
%TD*%
%TO.C,R28*%
X156025001Y-99855000D03*
X156025001Y-102855000D03*
%TD*%
D23*
%TO.C,C11*%
X151720000Y-88460000D03*
X153620000Y-88460000D03*
%TD*%
D26*
%TO.C,J6*%
X91125000Y-62800000D03*
%TD*%
D12*
%TO.C,TP16*%
X125509581Y-132860000D03*
%TD*%
D40*
%TO.C,R4*%
X95991581Y-69300000D03*
X94166581Y-69300000D03*
%TD*%
D41*
%TO.C,SW7*%
X177200000Y-94875000D03*
X169450000Y-94875000D03*
%TD*%
D42*
%TO.C,J1*%
X93575000Y-96325000D03*
D43*
X94675000Y-92625000D03*
X101675000Y-92625000D03*
D44*
X102975000Y-96325000D03*
D42*
X95575000Y-88925000D03*
%TD*%
D10*
%TO.C,R47*%
X155800000Y-90050000D03*
X157625000Y-90050000D03*
%TD*%
D24*
%TO.C,R17*%
X106694000Y-71975000D03*
X108650000Y-71975000D03*
%TD*%
D11*
%TO.C,C6*%
X100808419Y-69400000D03*
X100808419Y-67500000D03*
%TD*%
D45*
%TO.C,SW4*%
X166025001Y-102456901D03*
X166025001Y-113456899D03*
D46*
X158525001Y-105456900D03*
X158525001Y-110456900D03*
X158525001Y-107956900D03*
X173025000Y-105456900D03*
X173025000Y-110456900D03*
%TD*%
D19*
%TO.C,R26*%
X136955000Y-45200000D03*
X138625000Y-45200000D03*
%TD*%
D25*
%TO.C,C19*%
X177550000Y-105175000D03*
X177550000Y-107075000D03*
%TD*%
D12*
%TO.C,TP11*%
X103600000Y-68575000D03*
%TD*%
D23*
%TO.C,C18*%
X166975000Y-96775000D03*
X168875000Y-96775000D03*
%TD*%
D30*
%TO.C,R24*%
X179700000Y-104600000D03*
X179700000Y-101600000D03*
%TD*%
D37*
%TO.C,R15*%
X149925000Y-82650000D03*
X149925000Y-84475000D03*
%TD*%
D15*
%TO.C,R33*%
X151450000Y-120680000D03*
X148450000Y-120680000D03*
%TD*%
D23*
%TO.C,C41*%
X149000000Y-123180000D03*
X150900000Y-123180000D03*
%TD*%
D12*
%TO.C,TP7*%
X92750000Y-75175000D03*
%TD*%
D36*
%TO.C,D6*%
X108893750Y-96750000D03*
X107493750Y-96750000D03*
%TD*%
D47*
%TO.C,R7*%
X108675000Y-100225000D03*
X102750000Y-100225000D03*
%TD*%
D48*
%TO.C,J9*%
X134750000Y-66500000D03*
D49*
X134750000Y-63000000D03*
%TD*%
D50*
%TO.C,J3*%
X175982500Y-65360000D03*
X175982500Y-71140000D03*
D51*
X179632500Y-63932000D03*
D52*
X175452500Y-63932000D03*
X175452500Y-72568000D03*
D51*
X179632500Y-72568000D03*
%TD*%
D53*
X131219581Y-119480000D03*
X131219581Y-132180000D03*
X141219581Y-132180000D03*
X141219581Y-119480000D03*
X93650000Y-118125000D03*
X93025000Y-132650000D03*
X91125000Y-81475000D03*
X172000000Y-82860000D03*
X172000000Y-85400000D03*
X172000000Y-87940000D03*
X172000000Y-90480000D03*
X132510000Y-47800000D03*
X135050000Y-47800000D03*
X137590000Y-47800000D03*
X140130000Y-47800000D03*
X91125000Y-62800000D03*
X94675000Y-92625000D03*
X101675000Y-92625000D03*
X166025001Y-102456901D03*
X166025001Y-113456899D03*
X158525001Y-105456900D03*
X158525001Y-110456900D03*
X158525001Y-107956900D03*
X173025000Y-105456900D03*
X173025000Y-110456900D03*
X134750000Y-66500000D03*
X134750000Y-63000000D03*
X175982500Y-65360000D03*
X175982500Y-71140000D03*
D54*
X179632500Y-63932000D03*
D55*
X175452500Y-63932000D03*
X175452500Y-72568000D03*
D54*
X179632500Y-72568000D03*
M02*
